<?xml version="1.0" encoding="UTF-8"?>
<svg version="1.1" xmlns="http://www.w3.org/2000/svg" width="292" height="293">
<path d="M0 0 C0.84949219 0.75410156 1.69898438 1.50820313 2.57421875 2.28515625 C20.68930129 19.29174743 33.70549725 43.10032017 40 67 C40.20737793 67.76086914 40.41475586 68.52173828 40.62841797 69.30566406 C50.54028779 107.15098521 42.49285347 146.4357447 23.30273438 179.85351562 C17.69840883 189.08762923 10.3790039 197.16068017 3 205 C2.17822266 205.90105469 2.17822266 205.90105469 1.33984375 206.8203125 C-22.19888294 231.6892375 -58.33437564 246.22076825 -92.20703125 247.203125 C-134.81246334 247.80186717 -170.92197612 233.14695002 -201.55371094 203.453125 C-227.88407104 176.9983135 -241.15661535 140.87515872 -241.375 104 C-241.30832098 92.74096908 -240.79441536 81.92756763 -238 71 C-237.81195801 70.2584668 -237.62391602 69.51693359 -237.43017578 68.75292969 C-232.46889099 49.97346029 -224.24188751 32.12848185 -212 17 C-211.53384277 16.4225 -211.06768555 15.845 -210.58740234 15.25 C-205.67883104 9.22291547 -200.67462614 3.3259061 -195 -2 C-194.34 -2 -193.68 -2 -193 -2 C-193 -2.66 -193 -3.32 -193 -4 C-191.18341177 -5.62053149 -189.37501607 -7.09763683 -187.4375 -8.5625 C-186.85250732 -9.00577637 -186.26751465 -9.44905273 -185.66479492 -9.90576172 C-128.62221164 -52.32339678 -52.30131551 -47.3370035 0 0 Z " fill="#FAFBFA" transform="translate(246,43)"/>
<path d="M0 0 C0.91523438 0.72058594 1.83046875 1.44117187 2.7734375 2.18359375 C17.2433613 14.31606832 28.97143588 35.11682284 31 54 C32.87029407 83.62726078 27.30141435 106.15842487 8 128.875 C-0.73084247 138.31328228 -11.52913059 144.60246193 -23.1875 149.75 C-23.85273682 150.04390625 -24.51797363 150.3378125 -25.20336914 150.640625 C-44.63891483 158.98774143 -68.65468241 158.42079943 -88.1875 150.6875 C-111.38399828 140.35395356 -127.24967273 124.97384755 -138 102 C-138.53625 100.906875 -139.0725 99.81375 -139.625 98.6875 C-143.39653121 88.57293903 -144.48163024 78.73411102 -144.375 68 C-144.38660156 66.83210938 -144.39820313 65.66421875 -144.41015625 64.4609375 C-144.3338422 41.51584514 -134.63478635 22.36722679 -119 6 C-118.45988281 5.38511719 -117.91976562 4.77023438 -117.36328125 4.13671875 C-86.98797569 -29.14604679 -33.14585836 -26.74244142 0 0 Z " fill="#F9FAFA" transform="translate(204,79)"/>
<path d="M0 0 C0.84949219 0.75410156 1.69898438 1.50820313 2.57421875 2.28515625 C20.68930129 19.29174743 33.70549725 43.10032017 40 67 C40.20737793 67.76086914 40.41475586 68.52173828 40.62841797 69.30566406 C50.54028779 107.15098521 42.49285347 146.4357447 23.30273438 179.85351562 C17.69840883 189.08762923 10.3790039 197.16068017 3 205 C2.17822266 205.90105469 2.17822266 205.90105469 1.33984375 206.8203125 C-22.19888294 231.6892375 -58.33437564 246.22076825 -92.20703125 247.203125 C-134.81246334 247.80186717 -170.92197612 233.14695002 -201.55371094 203.453125 C-227.88407104 176.9983135 -241.15661535 140.87515872 -241.375 104 C-241.30832098 92.74096908 -240.79441536 81.92756763 -238 71 C-237.81195801 70.2584668 -237.62391602 69.51693359 -237.43017578 68.75292969 C-232.46889099 49.97346029 -224.24188751 32.12848185 -212 17 C-211.53384277 16.4225 -211.06768555 15.845 -210.58740234 15.25 C-205.67883104 9.22291547 -200.67462614 3.3259061 -195 -2 C-194.34 -2 -193.68 -2 -193 -2 C-193 -2.66 -193 -3.32 -193 -4 C-191.18341177 -5.62053149 -189.37501607 -7.09763683 -187.4375 -8.5625 C-186.85250732 -9.00577637 -186.26751465 -9.44905273 -185.66479492 -9.90576172 C-128.62221164 -52.32339678 -52.30131551 -47.3370035 0 0 Z M-131 -28 C-132.13091064 -27.70198486 -132.13091064 -27.70198486 -133.28466797 -27.39794922 C-153.43497757 -21.92254451 -171.00732195 -12.43701121 -187 1 C-187.79277344 1.65742187 -188.58554688 2.31484375 -189.40234375 2.9921875 C-192.28643772 5.40488172 -192.28643772 5.40488172 -195 8 C-195 8.66 -195 9.32 -195 10 C-195.66 10 -196.32 10 -197 10 C-218.43551385 32.61378734 -233.07417892 64.68309561 -234 96 C-234.03996094 97.22976562 -234.07992187 98.45953125 -234.12109375 99.7265625 C-234.85691683 133.76256095 -223.80924159 165.87319282 -202 192 C-201.37222656 192.76828125 -200.74445313 193.5365625 -200.09765625 194.328125 C-196.12508339 199.0483703 -191.74542504 203.07005934 -187 207 C-186.28457031 207.61488281 -185.56914062 208.22976562 -184.83203125 208.86328125 C-160.61534319 229.10470058 -131.06239983 239.46757938 -99.5625 239.375 C-98.51326859 239.37418427 -98.51326859 239.37418427 -97.44284058 239.37335205 C-62.01844588 239.24730991 -28.48781724 225.94629325 -3.0234375 201.0859375 C23.66195241 174.19593119 37.24904329 138.99423438 37.31713867 101.24072266 C36.79561369 69.5121917 25.1935794 41.76286392 6 17 C5.44054687 16.20207031 4.88109375 15.40414062 4.3046875 14.58203125 C3.87414062 14.05996094 3.44359375 13.53789063 3 13 C2.34 13 1.68 13 1 13 C0.773125 12.443125 0.54625 11.88625 0.3125 11.3125 C-1.37550036 8.33840412 -3.46676517 6.27991135 -6 4 C-6.66 4 -7.32 4 -8 4 C-8 3.34 -8 2.68 -8 2 C-9.77393022 0.39575007 -11.5374683 -1.05661643 -13.4375 -2.5 C-14.3039917 -3.15887207 -14.3039917 -3.15887207 -15.18798828 -3.83105469 C-30.11114973 -14.9159301 -45.98383295 -22.06126124 -63.75 -27.3125 C-64.60110352 -27.56741211 -65.45220703 -27.82232422 -66.32910156 -28.08496094 C-86.19064924 -33.70383954 -111.10552326 -33.3240088 -131 -28 Z " fill="#BAC9C5" transform="translate(246,43)"/>
<path d="M0 0 C0.84949219 0.75410156 1.69898438 1.50820313 2.57421875 2.28515625 C20.68930129 19.29174743 33.70549725 43.10032017 40 67 C40.20737793 67.76086914 40.41475586 68.52173828 40.62841797 69.30566406 C50.54028779 107.15098521 42.49285347 146.4357447 23.30273438 179.85351562 C17.69840883 189.08762923 10.3790039 197.16068017 3 205 C2.17822266 205.90105469 2.17822266 205.90105469 1.33984375 206.8203125 C-22.19888294 231.6892375 -58.33437564 246.22076825 -92.20703125 247.203125 C-134.81246334 247.80186717 -170.92197612 233.14695002 -201.55371094 203.453125 C-227.88407104 176.9983135 -241.15661535 140.87515872 -241.375 104 C-241.30832098 92.74096908 -240.79441536 81.92756763 -238 71 C-237.81195801 70.2584668 -237.62391602 69.51693359 -237.43017578 68.75292969 C-232.46889099 49.97346029 -224.24188751 32.12848185 -212 17 C-211.53384277 16.4225 -211.06768555 15.845 -210.58740234 15.25 C-205.67883104 9.22291547 -200.67462614 3.3259061 -195 -2 C-194.34 -2 -193.68 -2 -193 -2 C-193 -2.66 -193 -3.32 -193 -4 C-191.18341177 -5.62053149 -189.37501607 -7.09763683 -187.4375 -8.5625 C-186.85250732 -9.00577637 -186.26751465 -9.44905273 -185.66479492 -9.90576172 C-128.62221164 -52.32339678 -52.30131551 -47.3370035 0 0 Z M-201.59375 8.28125 C-229.80424812 38.68589797 -239.30900571 75.52142448 -238.17919922 116.10498047 C-237.78632146 124.64445147 -236.25015558 132.7702643 -234 141 C-233.69449219 142.1456543 -233.69449219 142.1456543 -233.3828125 143.31445312 C-227.13258228 165.9811831 -214.63182258 185.80620349 -198.36328125 202.58984375 C-197.1763534 203.81758288 -196.00832377 205.06353682 -194.84375 206.3125 C-186.25050399 215.32836467 -175.61008617 221.65364872 -165 228 C-164.1440625 228.53109375 -163.288125 229.0621875 -162.40625 229.609375 C-158.4618709 231.88891877 -154.2470101 233.37830306 -150 235 C-149.18789062 235.33128906 -148.37578125 235.66257812 -147.5390625 236.00390625 C-138.95141823 239.37290515 -130.0124638 241.16157787 -121 243 C-120.23888916 243.17942139 -119.47777832 243.35884277 -118.69360352 243.54370117 C-115.38290496 244.10453645 -112.22151735 244.12978414 -108.86328125 244.1328125 C-107.8440583 244.13424759 -107.8440583 244.13424759 -106.804245 244.13571167 C-105.3695771 244.13638986 -103.93490608 244.13456083 -102.50024414 244.13037109 C-100.33667853 244.12505936 -98.17332448 244.13030674 -96.00976562 244.13671875 C-76.92358724 244.14868139 -60.50901186 240.68475334 -43 233 C-42.31260742 232.70609375 -41.62521484 232.4121875 -40.91699219 232.109375 C-25.98871553 225.68919588 -13.73539846 217.25564947 -2 206 C-1.05640625 205.13117188 -0.1128125 204.26234375 0.859375 203.3671875 C17.13314694 188.08099193 27.68106026 168.9223401 35 148 C35.24516357 147.3076123 35.49032715 146.61522461 35.74291992 145.90185547 C40.58307502 131.8985328 41.2889006 117.82147306 41.3125 103.125 C41.31599457 102.42407227 41.31948914 101.72314453 41.3230896 101.00097656 C41.35723794 88.64542208 40.11632152 76.82935079 36.6875 64.9375 C36.46803711 64.17002441 36.24857422 63.40254883 36.02246094 62.61181641 C25.44453357 26.55757901 -0.11417457 -1.93248107 -32.453125 -20.11328125 C-33.63407257 -20.7447078 -34.81649721 -21.37337588 -36 -22 C-36.7312207 -22.39985107 -37.46244141 -22.79970215 -38.21582031 -23.21166992 C-44.68625931 -26.62748691 -51.19740616 -28.79032047 -58.25 -30.6875 C-59.36189697 -30.98857666 -60.47379395 -31.28965332 -61.61938477 -31.59985352 C-112.63297054 -45.11914408 -165.38973633 -29.66194768 -201.59375 8.28125 Z " fill="#2E584B" transform="translate(246,43)"/>
<path d="M0 0 C0.91523438 0.72058594 1.83046875 1.44117187 2.7734375 2.18359375 C17.2433613 14.31606832 28.97143588 35.11682284 31 54 C32.87029407 83.62726078 27.30141435 106.15842487 8 128.875 C-0.73084247 138.31328228 -11.52913059 144.60246193 -23.1875 149.75 C-23.85273682 150.04390625 -24.51797363 150.3378125 -25.20336914 150.640625 C-44.63891483 158.98774143 -68.65468241 158.42079943 -88.1875 150.6875 C-111.38399828 140.35395356 -127.24967273 124.97384755 -138 102 C-138.53625 100.906875 -139.0725 99.81375 -139.625 98.6875 C-143.39653121 88.57293903 -144.48163024 78.73411102 -144.375 68 C-144.38660156 66.83210938 -144.39820313 65.66421875 -144.41015625 64.4609375 C-144.3338422 41.51584514 -134.63478635 22.36722679 -119 6 C-118.45988281 5.38511719 -117.91976562 4.77023438 -117.36328125 4.13671875 C-86.98797569 -29.14604679 -33.14585836 -26.74244142 0 0 Z M-122.69335938 11.43457031 C-133.18872817 24.00861828 -138.42278747 38.27078607 -142 54 C-142.1750708 54.6506543 -142.3501416 55.30130859 -142.53051758 55.97167969 C-146.8006124 74.41991047 -140.70421871 96.89126507 -131.13671875 112.76953125 C-127.77381284 117.85385152 -124.10835871 122.50036903 -120 127 C-119.34128906 127.72832031 -118.68257812 128.45664063 -118.00390625 129.20703125 C-106.42724884 141.38930856 -90.49628669 149.94326081 -74 153 C-73.23204102 153.17128418 -72.46408203 153.34256836 -71.67285156 153.51904297 C-49.37720868 157.53095533 -26.54022983 152.34159885 -7.69335938 140.18164062 C-2.64641345 136.65983868 1.68835538 132.36676508 6 128 C6.825 127.17371094 7.65 126.34742188 8.5 125.49609375 C18.89004936 114.56197086 23.87105301 102.23409443 28 88 C28.40412109 86.64261719 28.40412109 86.64261719 28.81640625 85.2578125 C33.71475267 65.45890179 29.09838083 42.21487943 19.1484375 24.75 C5.62964758 3.63698945 -12.98451307 -10.43465197 -37.25 -16.8125 C-69.52806348 -23.09480766 -100.69134233 -13.12844286 -122.69335938 11.43457031 Z " fill="#285246" transform="translate(204,79)"/>
<path d="M0 0 C0.33 0 0.66 0 1 0 C6.67449367 36.12971352 -1.38603216 74.70488925 -22.546875 104.734375 C-27.57221144 111.5291824 -33.21191448 117.85084299 -39 124 C-39.54785156 124.60070312 -40.09570312 125.20140625 -40.66015625 125.8203125 C-63.03915686 149.46397408 -96.89047874 163.64270351 -129 166 C-133.02219068 166.10883736 -137.03924593 166.0954983 -141.0625 166.0625 C-142.11888672 166.05798828 -143.17527344 166.05347656 -144.26367188 166.04882812 C-146.84250908 166.03715918 -149.42122294 166.02078885 -152 166 C-152 165.67 -152 165.34 -152 165 C-150.02 164.67 -148.04 164.34 -146 164 C-146 163.67 -146 163.34 -146 163 C-144.7625 162.94054199 -144.7625 162.94054199 -143.5 162.87988281 C-122.55906594 161.8223189 -104.41627487 159.5218563 -85 151 C-84.31260742 150.70609375 -83.62521484 150.4121875 -82.91699219 150.109375 C-67.9839929 143.68716483 -55.7453445 135.25200208 -44 124 C-43.12988281 123.20464844 -42.25976562 122.40929687 -41.36328125 121.58984375 C-25.44762873 106.53695128 -15.17562231 87.51264469 -8 67 C-7.75411133 66.3097876 -7.50822266 65.6195752 -7.25488281 64.90844727 C-5.52211423 59.91736693 -4.20810517 55.02912883 -3.375 49.8125 C-3.18671631 48.64968506 -3.18671631 48.64968506 -2.99462891 47.46337891 C-1.62387812 37.96590481 -1.48120111 28.37236361 -1.29052734 18.79223633 C-1.2642627 17.53822021 -1.23799805 16.2842041 -1.2109375 14.9921875 C-1.19337402 13.86151855 -1.17581055 12.73084961 -1.15771484 11.56591797 C-1 9 -1 9 0 8 C0.07148199 6.64756083 0.08399454 5.29165633 0.0625 3.9375 C0.0315625 1.9884375 0.0315625 1.9884375 0 0 Z " fill="#305A4D" transform="translate(288,124)"/>
<path d="M0 0 C5.63986152 1.56713438 10.30454392 4.31164637 15.3125 7.25 C17.18426021 8.33443118 19.0566855 9.41771502 20.9296875 10.5 C21.91420898 11.06976563 22.89873047 11.63953125 23.91308594 12.2265625 C29.2287472 15.28041915 34.58406949 18.26301399 39.9375 21.25 C48.65196727 26.12110643 57.3553341 31.00574986 66 36 C66.7331543 36.41797852 67.46630859 36.83595703 68.22167969 37.26660156 C70.61031456 38.62889271 72.99303257 40.00109063 75.375 41.375 C76.13232422 41.80458008 76.88964844 42.23416016 77.66992188 42.67675781 C79.48045789 43.72828082 81.24558661 44.85729491 83 46 C83 46.66 83 47.32 83 48 C81.0078125 49.28125 81.0078125 49.28125 78 50 C75.04682297 48.90891698 72.50785908 47.20805554 69.875 45.5 C68.45705058 44.6124687 67.03775504 43.72708472 65.6171875 42.84375 C64.87525146 42.3789624 64.13331543 41.9141748 63.36889648 41.43530273 C59.96487648 39.37282375 56.46647517 37.50050141 52.96386719 35.61181641 C44.37447641 30.94071608 35.92591014 26.00775928 27.45425415 21.12696838 C23.4141794 18.80229005 19.35450517 16.51539746 15.28515625 14.2421875 C13.27309011 13.09956984 11.26135217 11.95637399 9.25 10.8125 C8.30987061 10.29679443 7.36974121 9.78108887 6.40112305 9.24975586 C5.12748901 8.51704468 5.12748901 8.51704468 3.828125 7.76953125 C3.0846582 7.35292236 2.34119141 6.93631348 1.57519531 6.50708008 C0 5 0 5 -0.23925781 2.3269043 C-0.16030273 1.55902588 -0.08134766 0.79114746 0 0 Z " fill="#1D5345" transform="translate(99,98)"/>
<path d="M0 0 C3.63260345 1.36472823 6.90961407 2.9980116 10.26171875 4.94921875 C11.28579834 5.54283203 12.30987793 6.13644531 13.36499023 6.74804688 C14.46141846 7.38806641 15.55784668 8.02808594 16.6875 8.6875 C18.42831034 9.69863452 20.16912456 10.70976245 21.91017151 11.7204895 C23.11325895 12.41916341 24.31608579 13.11828623 25.5186615 13.81784058 C29.70729948 16.25377614 33.9054084 18.67266032 38.109375 21.08203125 C39.26605866 21.74580299 40.42271588 22.40962078 41.5793457 23.07348633 C43.75402264 24.32105999 45.92958531 25.56709152 48.10620117 26.8112793 C54.09235618 30.25270671 59.94911699 33.83211487 65.72485352 37.6171875 C68.0294181 39.13341693 68.0294181 39.13341693 71 40 C71 40.66 71 41.32 71 42 C68.81640625 43.14794922 68.81640625 43.14794922 66 44 C63.52734375 43.16064453 63.52734375 43.16064453 60.9375 41.6328125 C59.50422363 40.80438843 59.50422363 40.80438843 58.04199219 39.95922852 C57.03813477 39.35393311 56.03427734 38.7486377 55 38.125 C53.4516748 37.21995728 53.4516748 37.21995728 51.87207031 36.29663086 C45.4380766 32.51885917 39.06632656 28.63843429 32.7421875 24.6796875 C30.15698457 23.09615864 27.54436226 21.62360067 24.875 20.1875 C24.01003906 19.71699219 23.14507812 19.24648437 22.25390625 18.76171875 C20.3970732 17.75639858 18.5378041 16.75547908 16.67138672 15.76806641 C14.039137 14.36755223 11.42566093 12.93576828 8.8125 11.5 C7.51771729 10.82360474 7.51771729 10.82360474 6.19677734 10.13354492 C3.94155545 8.87709008 1.92773916 7.71824057 0 6 C-0.55078125 2.65625 -0.55078125 2.65625 0 0 Z " fill="#1B5144" transform="translate(99,109)"/>
<path d="M0 0 C3.45493703 1.30416885 6.57769293 2.81507599 9.75390625 4.6953125 C10.67792236 5.23897461 11.60193848 5.78263672 12.55395508 6.34277344 C13.5467749 6.9309082 14.53959473 7.51904297 15.5625 8.125 C26.323128 14.45586547 37.14297903 20.67417936 47.99633789 26.84423828 C49.1280542 27.4886084 50.25977051 28.13297852 51.42578125 28.796875 C52.43036377 29.36760742 53.43494629 29.93833984 54.4699707 30.52636719 C56.3509888 31.621979 58.18876691 32.79251127 60 34 C59 37 59 37 57.359375 37.91015625 C53.75070258 38.04757258 51.24584498 36.24175541 48.25 34.4375 C47.56824707 34.04054932 46.88649414 33.64359863 46.18408203 33.23461914 C44.64659817 32.33755657 43.11245743 31.43474857 41.58105469 30.52734375 C38.76210289 28.85922396 35.93284841 27.20959442 33.1015625 25.5625 C28.96679887 23.15655854 24.83559692 20.74468524 20.70703125 18.328125 C14.93705484 14.95570126 9.13661106 11.64027748 3.31640625 8.35546875 C1 7 1 7 0 6 C-0.04080783 4.00041636 -0.04254356 1.99954746 0 0 Z " fill="#1D5346" transform="translate(99,121)"/>
<path d="M0 0 C-0.81082031 0.4125 -1.62164062 0.825 -2.45703125 1.25 C-23.24791088 12.09320614 -40.03898241 27.40951096 -48 50 C-49.54224004 55.28299246 -50.77993427 60.63529921 -52 66 C-52.1750708 66.6506543 -52.3501416 67.30130859 -52.53051758 67.97167969 C-56.80060052 86.41985916 -50.70315997 108.88518788 -41.140625 124.765625 C-37.77720745 129.84757707 -34.10096282 134.49639719 -30 139 C-29.12214844 139.98226562 -29.12214844 139.98226562 -28.2265625 140.984375 C-19.7545599 149.97344818 -8.84672854 155.43201268 2 161 C-1 162 -1 162 -4.2578125 160.59375 C-5.55417512 159.90948853 -6.84290965 159.21064347 -8.125 158.5 C-8.80151611 158.12907227 -9.47803223 157.75814453 -10.17504883 157.37597656 C-28.18993272 147.29367889 -40.32278232 132.54353556 -49 114 C-49.53625 112.906875 -50.0725 111.81375 -50.625 110.6875 C-54.39653121 100.57293903 -55.48163024 90.73411102 -55.375 80 C-55.38660156 78.83210938 -55.39820313 77.66421875 -55.41015625 76.4609375 C-55.3338422 53.51584514 -45.63478635 34.36722679 -30 18 C-29.45988281 17.38511719 -28.91976562 16.77023438 -28.36328125 16.13671875 C-22.94526406 10.20010042 -7.8834841 -2.62782803 0 0 Z " fill="#1C4335" transform="translate(115,67)"/>
<path d="M0 0 C8.83933998 3.3681206 16.89353591 8.50201141 25.02734375 13.27734375 C29.63376376 15.94676717 34.31511216 18.47175317 39 21 C41.06299133 22.12409877 43.12550406 23.24907638 45.1875 24.375 C46.10917969 24.87773437 47.03085938 25.38046875 47.98046875 25.8984375 C48.98013672 26.44371094 48.98013672 26.44371094 50 27 C49.505 28.485 49.505 28.485 49 30 C46.08994527 30.85768673 44.49815996 31.18968752 41.62255859 30.09472656 C40.80609863 29.61487305 39.98963867 29.13501953 39.1484375 28.640625 C38.22313232 28.10671143 37.29782715 27.57279785 36.34448242 27.02270508 C35.36455322 26.4377124 34.38462402 25.85271973 33.375 25.25 C32.36477783 24.66178467 31.35455566 24.07356934 30.3137207 23.4675293 C28.2284071 22.2521725 26.14647043 21.03100391 24.06787109 19.80419922 C21.16792955 18.0987585 18.25441715 16.4205271 15.33203125 14.75390625 C13.61706436 13.7736529 11.90221432 12.79319509 10.1875 11.8125 C8.98843018 11.12752441 8.98843018 11.12752441 7.76513672 10.42871094 C7.03182129 10.00493164 6.29850586 9.58115234 5.54296875 9.14453125 C4.5842688 8.59309448 4.5842688 8.59309448 3.60620117 8.03051758 C2 7 2 7 0 5 C-0.125 2.375 -0.125 2.375 0 0 Z " fill="#205649" transform="translate(99,134)"/>
<path d="M0 0 C0.5625 2.625 0.5625 2.625 0 6 C-1.6105957 7.40698242 -1.6105957 7.40698242 -3.80078125 8.79296875 C-4.61877197 9.31117187 -5.4367627 9.829375 -6.27954102 10.36328125 C-11.05057399 13.23369362 -15.88551793 15.97908192 -20.75 18.6875 C-22.76593181 19.81585828 -24.78156735 20.94474607 -26.796875 22.07421875 C-28.11703613 22.81031372 -28.11703613 22.81031372 -29.46386719 23.5612793 C-31.21715202 24.55589881 -32.94747998 25.5916962 -34.65722656 26.65942383 C-37.38405894 28.21976528 -38.90843964 28.50133411 -42 28 C-42.66 27.01 -43.32 26.02 -44 25 C-34.28735006 19.25086877 -24.54411158 13.55473136 -14.77484131 7.90237427 C-13.5893904 7.21617108 -12.40437365 6.52921733 -11.2197876 5.84152222 C-9.54359969 4.86876858 -7.8655887 3.89915842 -6.1875 2.9296875 C-5.21167969 2.36491699 -4.23585937 1.80014648 -3.23046875 1.21826172 C-1 0 -1 0 0 0 Z " fill="#1C5345" transform="translate(194,97)"/>
<path d="M0 0 C0 16.17 0 32.34 0 49 C-1.485 49.495 -1.485 49.495 -3 50 C-3.66 49.67 -4.32 49.34 -5 49 C-5 33.49 -5 17.98 -5 2 C-1 0 -1 0 0 0 Z " fill="#1A5345" transform="translate(151,165)"/>
<path d="M0 0 C2.475 0.99 2.475 0.99 5 2 C5 16.52 5 31.04 5 46 C0 43 0 43 -0.60127258 41.00679016 C-0.59016953 40.24956161 -0.57906647 39.49233307 -0.56762695 38.7121582 C-0.5672493 37.85149246 -0.56687164 36.99082672 -0.56648254 36.1040802 C-0.54067612 35.17899155 -0.51486969 34.25390289 -0.48828125 33.30078125 C-0.48120651 32.35059616 -0.47413177 31.40041107 -0.46684265 30.4214325 C-0.4388367 27.38432324 -0.37608644 24.34905265 -0.3125 21.3125 C-0.28742516 19.2545839 -0.26461058 17.19663893 -0.24414062 15.13867188 C-0.18898955 10.09173866 -0.10267382 5.04618112 0 0 Z " fill="#175042" transform="translate(125,158)"/>
<path d="M0 0 C3.0625 2.0625 3.0625 2.0625 5 5 C5.1506132 9.29247606 4.66257079 11.22050496 1.875 14.5 C-1.97148295 16.50686067 -3.88546541 16.27176524 -8 15 C-10.5 12.875 -10.5 12.875 -12 10 C-11.94021398 6.53241058 -11.60965977 4.11173251 -9.9375 1.0625 C-6.70668894 -0.7092351 -3.5202266 -0.7177161 0 0 Z " fill="#F4F6F6" transform="translate(259,113)"/>
<path d="M0 0 C0 2.31 0 4.62 0 7 C-0.59683594 7.31710938 -1.19367188 7.63421875 -1.80859375 7.9609375 C-6.39282384 10.42674923 -10.91150659 12.92406612 -15.33984375 15.66015625 C-16.08886963 16.11793457 -16.83789551 16.57571289 -17.60961914 17.04736328 C-19.10452929 17.96470549 -20.59225026 18.89388126 -22.07202148 19.83544922 C-27.3375141 23.04732042 -27.3375141 23.04732042 -31.0078125 22.78515625 C-31.66523438 22.52605469 -32.32265625 22.26695312 -33 22 C-33.33 21.01 -33.66 20.02 -34 19 C-32.87464844 18.38253906 -31.74929687 17.76507813 -30.58984375 17.12890625 C-22.13292255 12.46959342 -13.7432706 7.73895136 -5.50952148 2.69360352 C-1.09675256 0 -1.09675256 0 0 0 Z " fill="#1D5346" transform="translate(194,108)"/>
<path d="M0 0 C4.68886023 1.45663005 6.27106751 5.38356089 8.4375 9.4375 C8.83291992 10.16251709 9.22833984 10.88753418 9.63574219 11.63452148 C22.04596618 34.62198856 26.22958248 55.80122607 26.0625 81.8125 C26.05746684 83.19856606 26.0529072 84.58463393 26.04882812 85.97070312 C26.03717953 89.31384975 26.02082429 92.65690011 26 96 C25.67 96 25.34 96 25 96 C24.98541748 95.20529297 24.97083496 94.41058594 24.95581055 93.59179688 C24.62577426 72.11532128 24.62577426 72.11532128 21 51 C20.81920898 50.27280762 20.63841797 49.54561523 20.45214844 48.79638672 C17.00584541 35.06007875 12.25639245 22.77536526 5.12207031 10.51708984 C3.12516512 7.08141532 1.352937 3.7549428 0 0 Z " fill="#244F41" transform="translate(263,66)"/>
<path d="M0 0 C0 16.5 0 33 0 50 C-1.32 50.66 -2.64 51.32 -4 52 C-4.07587748 44.91592242 -4.12852671 37.83194906 -4.16479492 30.74755859 C-4.17990945 28.33606043 -4.20040153 25.92458986 -4.22631836 23.51318359 C-4.26258425 20.05299072 -4.27969956 16.59316029 -4.29296875 13.1328125 C-4.30845261 12.04944611 -4.32393646 10.96607971 -4.33988953 9.84988403 C-4.34011612 8.8489975 -4.34034271 7.84811096 -4.34057617 6.81689453 C-4.34723801 5.93309113 -4.35389984 5.04928772 -4.36076355 4.13870239 C-4.24171158 3.4329306 -4.12265961 2.72715881 -4 2 C-1 0 -1 0 0 0 Z " fill="#124D3E" transform="translate(161,159)"/>
<path d="M0 0 C0 16.17 0 32.34 0 49 C-1.32 49.66 -2.64 50.32 -4 51 C-4 34.5 -4 18 -4 1 C-2 0 -2 0 0 0 Z " fill="#164D40" transform="translate(172,153)"/>
<path d="M0 0 C-3.46689114 2.97922103 -7.32073715 4.46228639 -11.5625 6 C-12.28211914 6.26272705 -13.00173828 6.5254541 -13.74316406 6.79614258 C-33.55328406 13.92911532 -53.05140154 15.55593042 -74 15 C-74 14.67 -74 14.34 -74 14 C-72.02 13.67 -70.04 13.34 -68 13 C-68 12.67 -68 12.34 -68 12 C-66.7625 11.94054199 -66.7625 11.94054199 -65.5 11.87988281 C-47.16737344 10.95404425 -15.12266326 -3.5816834 0 0 Z " fill="#4A7166" transform="translate(210,275)"/>
<path d="M0 0 C2.5 2.125 2.5 2.125 4 5 C3.8544437 9.14835447 3.1403119 12.43281349 1 16 C0.34 16 -0.32 16 -1 16 C-1.53625 15.4225 -2.0725 14.845 -2.625 14.25 C-5.72414685 11.31396614 -9.14507468 9.75904359 -13 8 C-12.16607751 4.87279065 -11.45564406 2.52314688 -9.3125 0.0625 C-5.82223581 -1.5411349 -3.64499019 -1.04142577 0 0 Z " fill="#295749" transform="translate(53,89)"/>
<path d="M0 0 C24.07203581 -0.67327123 46.83239073 2.05565192 69 12 C68.67 12.99 68.34 13.98 68 15 C67.20275513 14.72845093 67.20275513 14.72845093 66.3894043 14.45141602 C44.47765269 7.05884175 24.10474234 3.73452657 1 3 C0.67 2.01 0.34 1.02 0 0 Z " fill="#466C61" transform="translate(137,4)"/>
<path d="M0 0 C1.98 0.99 1.98 0.99 4 2 C4 16.52 4 31.04 4 46 C2.68 45.34 1.36 44.68 0 44 C0 29.48 0 14.96 0 0 Z " fill="#10493B" transform="translate(136,164)"/>
<path d="M0 0 C1.40885258 0.00502467 2.81770689 0.00958587 4.2265625 0.01367188 C7.65108638 0.0253997 11.07552047 0.04181309 14.5 0.0625 C14.5 0.3925 14.5 0.7225 14.5 1.0625 C13.94650879 1.08231934 13.39301758 1.10213867 12.82275391 1.12255859 C-0.17179456 1.44819715 -0.17179456 1.44819715 -12.96875 3.46875 C-15.68779452 4.10655057 -18.42194351 4.5906309 -21.17260742 5.07055664 C-32.02161651 6.98688766 -42.865513 9.24073466 -52.6328125 14.5234375 C-54.5 15.0625 -54.5 15.0625 -56.7421875 14.1640625 C-57.32226562 13.80054688 -57.90234375 13.43703125 -58.5 13.0625 C-49.79071986 9.23703138 -41.11499576 5.73251172 -31.9375 3.1875 C-31.21320801 2.98487549 -30.48891602 2.78225098 -29.74267578 2.57348633 C-19.84253411 -0.0661717 -10.17633214 -0.06333321 0 0 Z " fill="#3A6155" transform="translate(143.5,4.9375)"/>
<path d="M0 0 C0.33 0 0.66 0 1 0 C2.14660236 7.30046012 2.32893798 14.49820531 2.375 21.875 C2.38184311 22.92880859 2.38184311 22.92880859 2.38882446 24.00390625 C2.42693225 40.49265679 0.18351057 56.62282416 -6 72 C-6.66 71.34 -7.32 70.68 -8 70 C-7.86328125 68.0390625 -7.86328125 68.0390625 -7.3125 65.625 C-7.11398437 64.73167969 -6.91546875 63.83835938 -6.7109375 62.91796875 C-5.75214179 58.98269184 -4.74189775 55.06203677 -3.68359375 51.15234375 C-1.56435862 41.3796423 -1.69520864 31.35213077 -1.44775391 21.3984375 C-1.39625612 19.38010221 -1.33885525 17.36192021 -1.28125 15.34375 C-1.25095703 14.14943359 -1.22066406 12.95511719 -1.18945312 11.72460938 C-1 9 -1 9 0 8 C0.07148199 6.64756083 0.08399454 5.29165633 0.0625 3.9375 C0.041875 2.638125 0.02125 1.33875 0 0 Z " fill="#50786D" transform="translate(288,124)"/>
<path d="M0 0 C0.33 1.32 0.66 2.64 1 4 C-3.455 3.01 -3.455 3.01 -8 2 C-8 4.64 -8 7.28 -8 10 C-6.02 10 -4.04 10 -2 10 C-1.67 9.01 -1.34 8.02 -1 7 C-0.67 9.64 -0.34 12.28 0 15 C-0.66 15 -1.32 15 -2 15 C-2 14.01 -2 13.02 -2 12 C-3.32 12.33 -4.64 12.66 -6 13 C-6.33 15.97 -6.66 18.94 -7 22 C-6.34 22 -5.68 22 -5 22 C-5 22.66 -5 23.32 -5 24 C-7.64 24 -10.28 24 -13 24 C-12.34 23.67 -11.68 23.34 -11 23 C-11.165 21.741875 -11.33 20.48375 -11.5 19.1875 C-12.11073012 13.7855491 -12.09133564 8.42939662 -12 3 C-12.99 3 -13.98 3 -15 3 C-15 2.34 -15 1.68 -15 1 C-9.94997778 -0.03590199 -5.12583611 -0.10251672 0 0 Z " fill="#034031" transform="translate(172,246)"/>
<path d="M0 0 C2.3431213 0.25561323 4.67843403 0.59270772 7 1 C7.33 1.66 7.66 2.32 8 3 C7.34 3 6.68 3 6 3 C6.99 5.97 7.98 8.94 9 12 C10.65 10.02 12.3 8.04 14 6 C13.67 5.34 13.34 4.68 13 4 C15.31 4.66 17.62 5.32 20 6 C16.25 9 16.25 9 14 9 C13.731875 9.598125 13.46375 10.19625 13.1875 10.8125 C12 13 12 13 10.53125 14.34375 C8.67231257 16.35443743 8.10608468 18.08000747 7.3125 20.6875 C7.06113281 21.49574219 6.80976562 22.30398438 6.55078125 23.13671875 C6.36902344 23.75160156 6.18726562 24.36648438 6 25 C6.66 25.33 7.32 25.66 8 26 C5.6568787 25.74438677 3.32156597 25.40729228 1 25 C0.67 24.34 0.34 23.68 0 23 C0.66 22.67 1.32 22.34 2 22 C3.242852 17.9174195 2.98774795 14.0963966 2.6875 9.875 C2.60886719 8.65554687 2.53023438 7.43609375 2.44921875 6.1796875 C2.21281885 2.85030558 2.21281885 2.85030558 0 0 Z " fill="#306356" transform="translate(93,234)"/>
<path d="M0 0 C0.33 1.65 0.66 3.3 1 5 C0.46375 4.649375 -0.0725 4.29875 -0.625 3.9375 C-3.84367331 2.66697106 -5.70954769 3.01986527 -9 4 C-11.4451155 6.20060395 -11.93240271 7.56544602 -12.4375 10.8125 C-11.85404821 15.06336307 -10.37921481 17.43117779 -8 21 C-5.22899606 22.38550197 -3.0665294 22.1877467 0 22 C3.22404978 20.33045181 3.22404978 20.33045181 3.6875 17.375 C3.790625 16.59125 3.89375 15.8075 4 15 C4.99 15.99 5.98 16.98 7 18 C5.96008872 21.01574271 5.03085171 21.97991051 2.3125 23.75 C-1.5047562 25.19047404 -3.95034145 25.50620732 -8 25 C-11.70390021 22.97333762 -13.65363011 21.51955484 -16 18 C-16.69084802 13.26046123 -16.72010368 9.25351381 -14.3125 5.0625 C-9.48501566 0.75690586 -6.56182839 -0.38598991 0 0 Z " fill="#1C4E41" transform="translate(205,234)"/>
<path d="M0 0 C0.87527344 -0.00257813 1.75054687 -0.00515625 2.65234375 -0.0078125 C5.0625 0.125 5.0625 0.125 8.0625 1.125 C8.0625 2.775 8.0625 4.425 8.0625 6.125 C7.4025 6.125 6.7425 6.125 6.0625 6.125 C5.4025 4.805 4.7425 3.485 4.0625 2.125 C0.16746422 1.67208886 -1.51433856 1.83982599 -4.8125 4.0625 C-7.65804501 8.16343252 -7.54413317 11.28060083 -6.9375 16.125 C-6.62963485 17.46444315 -6.30394685 18.80038474 -5.9375 20.125 C-4.47932203 20.29302051 -3.0209516 20.45937143 -1.5625 20.625 C-0.34433594 20.76421875 -0.34433594 20.76421875 0.8984375 20.90625 C3.03162825 21.15852351 3.03162825 21.15852351 5.0625 21.125 C5.3925 19.805 5.7225 18.485 6.0625 17.125 C6.7225 17.125 7.3825 17.125 8.0625 17.125 C8.25 19.5 8.25 19.5 8.0625 22.125 C4.32066125 24.61955917 2.50006964 24.50106522 -1.9375 24.125 C-6.55979488 22.40296857 -9.49199419 20.45166412 -11.9375 16.125 C-12.70350584 12.25201721 -12.85540052 8.75418875 -10.87890625 5.24609375 C-7.42395266 0.99147732 -5.30066452 -0.0155673 0 0 Z " fill="#174D3F" transform="translate(132.9375,246.875)"/>
<path d="M0 0 C1.485 0.99 1.485 0.99 3 2 C3.36889648 4.5559082 3.36889648 4.5559082 3.37109375 7.80078125 C3.38591797 8.99638672 3.40074219 10.19199219 3.41601562 11.42382812 C3.42310547 12.70708984 3.43019531 13.99035156 3.4375 15.3125 C3.65627336 27.26225551 4.87229239 38.45234895 7.55859375 50.0859375 C8.08795101 52.38138047 8.55238975 54.68734706 9 57 C7.515 57.495 7.515 57.495 6 58 C5.36552578 55.77318028 4.74255576 53.54402241 4.125 51.3125 C3.77695313 50.07113281 3.42890625 48.82976562 3.0703125 47.55078125 C0.30603107 36.43898022 -0.27162625 25.60083197 -0.125 14.1875 C-0.11493373 12.80143888 -0.10581442 11.41537054 -0.09765625 10.02929688 C-0.07435806 6.68600727 -0.04164862 3.34310269 0 0 Z " fill="#63877F" transform="translate(5,132)"/>
<path d="M0 0 C0.51171875 2.66015625 0.51171875 2.66015625 0 6 C-2.42850665 8.3250659 -5.25113131 9.83126071 -8.1875 11.4375 C-8.95642578 11.89576172 -9.72535156 12.35402344 -10.51757812 12.82617188 C-16.19422565 16.05674467 -16.19422565 16.05674467 -20.05078125 15.78515625 C-20.69402344 15.52605469 -21.33726562 15.26695312 -22 15 C-22 14.01 -22 13.02 -22 12 C-20.19580078 10.55786133 -20.19580078 10.55786133 -17.6953125 9.08203125 C-16.80199219 8.55029297 -15.90867188 8.01855469 -14.98828125 7.47070312 C-14.04339844 6.92349609 -13.09851563 6.37628906 -12.125 5.8125 C-11.18785156 5.25369141 -10.25070313 4.69488281 -9.28515625 4.11914062 C-2.29418498 0 -2.29418498 0 0 0 Z " fill="#1C5143" transform="translate(194,121)"/>
<path d="M0 0 C3.8387941 0.14217756 6.29488319 0.52404615 9.5 2.6875 C11 5 11 5 10.8125 8.1875 C10 11 10 11 9 12 C5.28558261 12.42209289 3.41000573 12.23174237 0.125 10.375 C-2 8 -2 8 -2.4375 4.875 C-2 2 -2 2 0 0 Z " fill="#F4F7F6" transform="translate(240,195)"/>
<path d="M0 0 C1.299375 0.144375 2.59875 0.28875 3.9375 0.4375 C5.9375 3.4375 5.9375 3.4375 5.8125 5.375 C4.62922554 8.16414694 3.32513376 9.56611138 0.9375 11.4375 C-2.1875 12.3125 -2.1875 12.3125 -5.0625 12.4375 C-7.0625 10.4375 -7.0625 10.4375 -7.375 7.5625 C-7.0625 4.4375 -7.0625 4.4375 -6.0625 2.0625 C-3.77013405 0.19995267 -2.8835994 0.12036803 0 0 Z " fill="#F5F7F7" transform="translate(232.0625,67.5625)"/>
<path d="M0 0 C0 0.66 0 1.32 0 2 C-1.34578125 2.65742188 -1.34578125 2.65742188 -2.71875 3.328125 C-13.99789181 9.00280964 -25.14880764 15.88033703 -34 25 C-34.66 24.67 -35.32 24.34 -36 24 C-32.41945565 14.51698254 -10.02197538 0 0 0 Z " fill="#325C4F" transform="translate(87,19)"/>
<path d="M0 0 C0.515625 0.2475 1.03125 0.495 1.5625 0.75 C1.8925 3.39 2.2225 6.03 2.5625 8.75 C1.5725 9.41 0.5825 10.07 -0.4375 10.75 C-0.1075 11.74 0.2225 12.73 0.5625 13.75 C1.2225 14.08 1.8825 14.41 2.5625 14.75 C2.5625 15.41 2.5625 16.07 2.5625 16.75 C1.2425 17.08 -0.0775 17.41 -1.4375 17.75 C-3.4175 13.79 -5.3975 9.83 -7.4375 5.75 C-8.0975 5.75 -8.7575 5.75 -9.4375 5.75 C-9.4375 5.09 -9.4375 4.43 -9.4375 3.75 C-3.0375 -0.31153846 -3.0375 -0.31153846 0 0 Z " fill="#BAC9C5" transform="translate(100.4375,38.25)"/>
<path d="M0 0 C1.65 0 3.3 0 5 0 C5 5.28 5 10.56 5 16 C3.27473958 14.50260417 1.54947917 13.00520833 -0.17578125 11.5078125 C-2.13498212 9.8359553 -2.13498212 9.8359553 -5 8 C-5 10.64 -5 13.28 -5 16 C-4.34 16 -3.68 16 -3 16 C-3 16.66 -3 17.32 -3 18 C-4.65 18 -6.3 18 -8 18 C-7.97679688 17.43152344 -7.95359375 16.86304687 -7.9296875 16.27734375 C-7.80808312 11.07441352 -8.32276508 6.92687757 -10 2 C-4.91664275 2.15404113 -2.64245282 5.02068432 0.64453125 8.50390625 C1.09183594 8.99761719 1.53914062 9.49132813 2 10 C2 7.36 2 4.72 2 2 C1.34 2 0.68 2 0 2 C0 1.34 0 0.68 0 0 Z " fill="#134335" transform="translate(128,29)"/>
<path d="M0 0 C2.625 0.375 2.625 0.375 5 1 C5 2.65 5 4.3 5 6 C4.34 6 3.68 6 3 6 C3 4.68 3 3.36 3 2 C2.01 2 1.02 2 0 2 C1.21030974 4.57327433 1.21030974 4.57327433 3 7 C4.32 7 5.64 7 7 7 C7 6.34 7 5.68 7 5 C8.32 5.66 9.64 6.32 11 7 C11 7.66 11 8.32 11 9 C11.66 9.33 12.32 9.66 13 10 C12.34 10 11.68 10 11 10 C10.79375 10.639375 10.5875 11.27875 10.375 11.9375 C9 14 9 14 6 14.875 C5.01 14.91625 4.02 14.9575 3 15 C-0.35329538 11.64670462 -1.48206719 6.66139527 -2 2 C-1.34 1.34 -0.68 0.68 0 0 Z " fill="#6B8B82" transform="translate(78,51)"/>
<path d="M0 0 C4.18784715 2.09392358 4.73344901 2.70392863 6.75 6.625 C7.17796875 7.44226562 7.6059375 8.25953125 8.046875 9.1015625 C8.51867187 10.04128906 8.51867187 10.04128906 9 11 C10.20561184 10.01732141 10.20561184 10.01732141 10.09765625 8.15234375 C10.08605469 7.42144531 10.07445312 6.69054688 10.0625 5.9375 C10.041875 4.638125 10.02125 3.33875 10 2 C11.32 2 12.64 2 14 2 C13.01 7.28 12.02 12.56 11 18 C10.34 18 9.68 18 9 18 C8.47599609 16.93458984 8.47599609 16.93458984 7.94140625 15.84765625 C7.48636719 14.92855469 7.03132812 14.00945313 6.5625 13.0625 C6.11003906 12.14597656 5.65757812 11.22945312 5.19140625 10.28515625 C4.19474606 8.09471096 4.19474606 8.09471096 3 7 C2.835 8.27875 2.67 9.5575 2.5 10.875 C2.4071875 11.59429687 2.314375 12.31359375 2.21875 13.0546875 C1.9627515 15.00498344 1.9627515 15.00498344 2 17 C1.01 16.67 0.02 16.34 -1 16 C-0.67 10.72 -0.34 5.44 0 0 Z " fill="#265346" transform="translate(159,28)"/>
<path d="M0 0 C0.33 0 0.66 0 1 0 C1.02688151 1.64574566 1.04634123 3.29161413 1.0625 4.9375 C1.07410156 5.85402344 1.08570313 6.77054688 1.09765625 7.71484375 C1 10 1 10 0 11 C-1.66608987 11.04384447 -3.33380554 11.0396713 -5 11 C-8.69418201 11 -10.77836178 12.28179295 -14 14 C-13.9375 12.25 -13.9375 12.25 -13 10 C-10.75835678 8.40498463 -8.46433357 7.25456982 -6 6 C-5.67 6.66 -5.34 7.32 -5 8 C-3.68 8 -2.36 8 -1 8 C-0.67 7.01 -0.34 6.02 0 5 C-2.12534659 5.14069196 -4.25027529 5.28770921 -6.375 5.4375 C-8.15003906 5.55931641 -8.15003906 5.55931641 -9.9609375 5.68359375 C-12.91518901 5.81084936 -12.91518901 5.81084936 -15 7 C-15 5.35 -15 3.7 -15 2 C-14.00097656 1.93941406 -13.00195312 1.87882813 -11.97265625 1.81640625 C-10.68230469 1.73261719 -9.39195312 1.64882812 -8.0625 1.5625 C-6.77472656 1.48128906 -5.48695313 1.40007812 -4.16015625 1.31640625 C-1.13976043 1.35080812 -1.13976043 1.35080812 0 0 Z " fill="#406A5F" transform="translate(265,132)"/>
<path d="M0 0 C1.9375 0.8125 1.9375 0.8125 3.9375 2.8125 C5.94443006 2.61467135 5.94443006 2.61467135 8.0625 1.9375 C9.14917969 1.63199219 9.14917969 1.63199219 10.2578125 1.3203125 C10.81210937 1.15273437 11.36640625 0.98515625 11.9375 0.8125 C11.6075 1.8025 11.2775 2.7925 10.9375 3.8125 C8.6275 4.1425 6.3175 4.4725 3.9375 4.8125 C3.9375 5.4725 3.9375 6.1325 3.9375 6.8125 C3.2775 6.8125 2.6175 6.8125 1.9375 6.8125 C1.6075 5.8225 1.2775 4.8325 0.9375 3.8125 C-1.07758358 3.07926204 -1.07758358 3.07926204 -3.0625 2.8125 C-3.3925 4.1325 -3.7225 5.4525 -4.0625 6.8125 C0.8875 7.1425 5.8375 7.4725 10.9375 7.8125 C10.9375 9.4625 10.9375 11.1125 10.9375 12.8125 C10.2775 12.8125 9.6175 12.8125 8.9375 12.8125 C8.9375 12.1525 8.9375 11.4925 8.9375 10.8125 C3.9875 10.8125 -0.9625 10.8125 -6.0625 10.8125 C-5.45766129 3.43346774 -5.45766129 3.43346774 -3.75 0.75 C-2.0625 -0.1875 -2.0625 -0.1875 0 0 Z " fill="#3B6256" transform="translate(35.0625,122.1875)"/>
<path d="M0 0 C0.99 0.33 1.98 0.66 3 1 C4.3515625 3.87109375 4.3515625 3.87109375 5.625 7.4375 C6.05039063 8.61183594 6.47578125 9.78617188 6.9140625 10.99609375 C7.27242187 11.98738281 7.63078125 12.97867188 8 14 C8.33 14.66 8.66 15.32 9 16 C7.02 16 5.04 16 3 16 C3.33 14.02 3.66 12.04 4 10 C2.02 10 0.04 10 -2 10 C-2 11.98 -2 13.96 -2 16 C-3.32 15.67 -4.64 15.34 -6 15 C-4.02 10.05 -2.04 5.1 0 0 Z " fill="#83A098" transform="translate(144,28)"/>
<path d="M0 0 C4.10303158 0.46625359 7.16746984 0.84063943 10 4 C10.25 7.1875 10.25 7.1875 10 10 C5.85323868 10 4.68791935 9.5223055 1.25 7.5 C0.45078125 7.0359375 -0.3484375 6.571875 -1.171875 6.09375 C-1.77515625 5.7328125 -2.3784375 5.371875 -3 5 C-2.01 3.35 -1.02 1.7 0 0 Z " fill="#F4F7F6" transform="translate(45,90)"/>
<path d="M0 0 C1.90625 0.48046875 1.90625 0.48046875 4.40625 2.54296875 C6.27901489 6.21046667 6.49797793 8.4123392 5.90625 12.48046875 C4.34375 14.91796875 4.34375 14.91796875 1.90625 16.48046875 C-1.53125 17.04296875 -1.53125 17.04296875 -5.09375 16.48046875 C-8.48052089 14.03046428 -9.88073584 12.61654429 -10.65625 8.48046875 C-9.45162798 2.05581795 -6.35827875 -0.43891103 0 0 Z M-8.09375 4.48046875 C-8.6775696 7.39539425 -8.6775696 7.39539425 -8.09375 10.48046875 C-5.44139532 13.44486515 -3.85567877 14.37589029 0.09375 14.91796875 C1.021875 14.77359375 1.95 14.62921875 2.90625 14.48046875 C5.19617684 11.66514818 5.19617684 11.66514818 4.84375 8.48046875 C4.16307909 5.34990601 4.16307909 5.34990601 1.65625 3.60546875 C-2.33758943 1.97162535 -4.91371227 1.30043102 -8.09375 4.48046875 Z " fill="#326054" transform="translate(246.09375,192.51953125)"/>
<path d="M0 0 C0.66 1.32 1.32 2.64 2 4 C0.68 4.33 -0.64 4.66 -2 5 C-2 6.98 -2 8.96 -2 11 C-0.35 11 1.3 11 3 11 C3.33 10.34 3.66 9.68 4 9 C4.33 10.32 4.66 11.64 5 13 C-0.61 12.67 -6.22 12.34 -12 12 C-10.77963078 7.11852312 -9.47925737 6.53741888 -5.4375 3.75 C-4.42558594 3.04359375 -3.41367187 2.3371875 -2.37109375 1.609375 C-1.58863281 1.07828125 -0.80617188 0.5471875 0 0 Z " fill="#809F97" transform="translate(47,174)"/>
<path d="M0 0 C3.67230705 3.07999946 4.56802365 5.2482602 5 10 C3.9275 10.20625 2.855 10.4125 1.75 10.625 C-2.70591174 12.2588343 -3.77777608 13.91110799 -6 18 C-6.6875 16.375 -6.6875 16.375 -7 14 C-5.5625 10.75 -5.5625 10.75 -4 8 C-2.02 8 -0.04 8 2 8 C2 7.01 2 6.02 2 5 C-2.00177908 5.61565832 -4.69535748 7.7729583 -8 10 C-8.66 10 -9.32 10 -10 10 C-10.33 10.66 -10.66 11.32 -11 12 C-11.66 10.35 -12.32 8.7 -13 7 C-12.29875 6.9175 -11.5975 6.835 -10.875 6.75 C-7.35410673 5.8315061 -4.9782532 4.05168554 -2 2 C-1.34 2 -0.68 2 0 2 C0 1.34 0 0.68 0 0 Z " fill="#325B4E" transform="translate(245,80)"/>
<path d="M0 0 C2.5 1.5625 2.5 1.5625 4 4 C4.55326548 7.87285839 4.56331202 10.04481874 2.5625 13.4375 C-1.22212177 15.7451962 -4.68102753 15.79344759 -9 15 C-11.0625 13.4375 -11.0625 13.4375 -12 11 C-12.48505011 7.11959911 -12.56851618 4.9238388 -10.5 1.5625 C-6.97873756 -0.63828902 -4.04560357 -0.80414661 0 0 Z M-9 3.625 C-10.25954167 6.61641148 -10.34952958 8.78432784 -10 12 C-9.34 12.66 -8.68 13.32 -8 14 C-4.0277953 13.91172878 -2.23850638 13.18268574 0.9375 10.75 C3.30129875 8.20528047 3.30129875 8.20528047 2.875 5.25 C2.19908102 3.06483481 2.19908102 3.06483481 1 2 C-4.41994818 1.34534681 -4.41994818 1.34534681 -9 3.625 Z " fill="#366256" transform="translate(235,66)"/>
<path d="M0 0 C16.46457045 2.55484714 31.78538636 13.04627208 42 26 C39 26 39 26 37.23046875 24.34765625 C36.55628906 23.59355469 35.88210937 22.83945313 35.1875 22.0625 C26.80674987 13.45158387 16.93212726 7.89024617 5.71044922 3.85083008 C1.09010355 2.1802071 1.09010355 2.1802071 0 0 Z " fill="#21483A" transform="translate(172,63)"/>
<path d="M0 0 C3.79049707 1.42749981 7.27122456 3.16236542 10.8125 5.125 C12.27623047 5.93324219 12.27623047 5.93324219 13.76953125 6.7578125 C14.50558594 7.16773438 15.24164063 7.57765625 16 8 C16 8.66 16 9.32 16 10 C10.72 11.32 5.44 12.64 0 14 C0 13.01 0 12.02 0 11 C1.98 10.67 3.96 10.34 6 10 C6 8.02 6 6.04 6 4 C4.02 4 2.04 4 0 4 C0 2.68 0 1.36 0 0 Z " fill="#62847B" transform="translate(250,149)"/>
<path d="M0 0 C5.90076627 0.25655506 9.43461598 2.29269034 14.3671875 5.4453125 C17.731189 7.43177036 21.19419648 8.75044788 24.87109375 10.04296875 C27.12047185 11.05415707 28.38643898 12.15815381 30 14 C23.07164228 13.60044073 18.2218202 11.45070653 12.1875 8.125 C11.34251953 7.67769531 10.49753906 7.23039062 9.62695312 6.76953125 C5.96559094 4.79780483 2.83790469 3.08441168 0 0 Z " fill="#345D50" transform="translate(69,266)"/>
<path d="M0 0 C0.66 0.33 1.32 0.66 2 1 C1.34 2.98 0.68 4.96 0 7 C1.65 7 3.3 7 5 7 C5 5.35 5 3.7 5 2 C6.32 2.33 7.64 2.66 9 3 C9 3.66 9 4.32 9 5 C8.34 5 7.68 5 7 5 C6.67 6.32 6.34 7.64 6 9 C7.98 9 9.96 9 12 9 C12.33 7.02 12.66 5.04 13 3 C13.99 3.33 14.98 3.66 16 4 C15.01 7.3 14.02 10.6 13 14 C12.34 14 11.68 14 11 14 C11 13.34 11 12.68 11 12 C10.13375 11.87625 9.2675 11.7525 8.375 11.625 C5 11 5 11 1.75 9.875 C-0.92493749 8.67190418 -0.92493749 8.67190418 -3 10 C-2.01 6.7 -1.02 3.4 0 0 Z " fill="#3E685C" transform="translate(36,105)"/>
<path d="M0 0 C3.40312738 1.05875074 6.01353231 2.00902154 9 4 C8.67 4.99 8.34 5.98 8 7 C8 6.34 8 5.68 8 5 C5.525 4.01 5.525 4.01 3 3 C2.67 4.65 2.34 6.3 2 8 C3.32 8.33 4.64 8.66 6 9 C5.67 10.32 5.34 11.64 5 13 C3 12 3 12 1 10 C-0.485 12.475 -0.485 12.475 -2 15 C-0.02 15.66 1.96 16.32 4 17 C4 17.66 4 18.32 4 19 C-0.51478398 18.46884894 -3.34666857 16.63379708 -7 14 C-6.01 13.67 -5.02 13.34 -4 13 C-2.87914688 10.6569191 -2.87914688 10.6569191 -2 8 C-1.62875 7.319375 -1.2575 6.63875 -0.875 5.9375 C0.27439115 3.74673942 0.27439115 3.74673942 0 0 Z " fill="#396356" transform="translate(197,39)"/>
<path d="M0 0 C12.8539779 -0.23105878 25.28663202 -0.03996736 38 2 C38 2.33 38 2.66 38 3 C25.61304305 4.39541109 13.4116568 3.70735857 1 3 C0.67 2.01 0.34 1.02 0 0 Z " fill="#668981" transform="translate(137,4)"/>
<path d="M0 0 C2.9375 -0.4375 2.9375 -0.4375 6 0 C7.875 1.8125 7.875 1.8125 9 4 C9 4.99 9 5.98 9 7 C8.01 7.33 7.02 7.66 6 8 C6 6.35 6 4.7 6 3 C4.68 3 3.36 3 2 3 C1.86722656 3.56589844 1.73445313 4.13179687 1.59765625 4.71484375 C1.33275391 5.81505859 1.33275391 5.81505859 1.0625 6.9375 C0.88847656 7.66839844 0.71445312 8.39929688 0.53515625 9.15234375 C0 11 0 11 -1 12 C-3.375 12.3125 -3.375 12.3125 -6 12 C-7.875 10.1875 -7.875 10.1875 -9 8 C-8.67 7.01 -8.34 6.02 -8 5 C-7.34 5.33 -6.68 5.66 -6 6 C-6 6.99 -6 7.98 -6 9 C-4.68 9.33 -3.36 9.66 -2 10 C-2.04125 8.906875 -2.0825 7.81375 -2.125 6.6875 C-2 3 -2 3 0 0 Z " fill="#436B60" transform="translate(49,192)"/>
<path d="M0 0 C2.81645906 3.18382329 3.72317437 5.75534029 4 10 C2 12 2 12 -0.625 12.125 C-1.40875 12.08375 -2.1925 12.0425 -3 12 C-3.66 10.68 -4.32 9.36 -5 8 C-2.03 8.495 -2.03 8.495 1 9 C1.33 7.68 1.66 6.36 2 5 C-3.01508715 6.54058233 -7.6147081 8.02931839 -12 11 C-12.66 9.35 -13.32 7.7 -14 6 C-13.154375 5.896875 -12.30875 5.79375 -11.4375 5.6875 C-7.53944527 4.90788905 -4.56596821 3.74802363 -1 2 C-0.67 1.34 -0.34 0.68 0 0 Z " fill="#295548" transform="translate(254,95)"/>
<path d="M0 0 C1.423125 1.2065625 1.423125 1.2065625 2.875 2.4375 C3.52339844 2.98664063 4.17179687 3.53578125 4.83984375 4.1015625 C6.30561948 5.38974877 7.73507072 6.72023443 9.12890625 8.0859375 C15.3235119 14.06043026 21.92510215 18.04461573 29.4609375 22.0546875 C32.1659759 23.4997289 34.61495858 25.05527392 37 27 C22.61991196 24.92287617 9.21925 12.52803706 0 2 C0 1.34 0 0.68 0 0 Z " fill="#153B2D" transform="translate(80,202)"/>
<path d="M0 0 C0 1.98 0 3.96 0 6 C-6.27692308 10.06153846 -6.27692308 10.06153846 -9.9375 9.75 C-10.618125 9.5025 -11.29875 9.255 -12 9 C-12 8.01 -12 7.02 -12 6 C-9.8828125 4.39453125 -9.8828125 4.39453125 -7.125 2.8125 C-6.22007812 2.28269531 -5.31515625 1.75289062 -4.3828125 1.20703125 C-2 0 -2 0 0 0 Z " fill="#215548" transform="translate(194,133)"/>
<path d="M0 0 C1.9375 1.3125 1.9375 1.3125 3 3 C3 3.99 3 4.98 3 6 C2.34 6 1.68 6 1 6 C0.67 5.01 0.34 4.02 0 3 C-3.41656024 2.83322718 -3.41656024 2.83322718 -7 3 C-9.37994368 4.94332332 -9.37994368 4.94332332 -9.25 8.5 C-9.37994368 12.05667668 -9.37994368 12.05667668 -7 14 C-4.21697081 14.20872719 -2.51281795 14.25640898 0 13 C-0.33 14.32 -0.66 15.64 -1 17 C-5.08449505 16.76435605 -7.34214932 16.59037881 -10.4375 13.8125 C-12.31263988 10.43724821 -12.71235686 8.7992366 -12 5 C-8.53085979 0.1642288 -5.86865756 -0.86943075 0 0 Z " fill="#3E675B" transform="translate(188,34)"/>
<path d="M0 0 C0.99 0.33 1.98 0.66 3 1 C2.01 1.495 2.01 1.495 1 2 C0.79029441 6.14093698 0.79029441 6.14093698 2 10 C3.45742463 10.08096803 4.91612807 10.13917774 6.375 10.1875 C7.59316406 10.23970703 7.59316406 10.23970703 8.8359375 10.29296875 C9.55007812 10.19628906 10.26421875 10.09960938 11 10 C13.36980013 7.04622502 13.36980013 7.04622502 13 3 C12.34 2.67 11.68 2.34 11 2 C11 1.34 11 0.68 11 0 C11.99 0 12.98 0 14 0 C15.42662219 2.85324437 15.31033868 4.83454549 15 8 C12.92555322 11.73400421 11.64328346 12.78947087 7.5625 14.125 C4 14 4 14 1.125 11.9375 C-1.18241442 8.74783889 -1.91490486 6.91437637 -2 3 C-1.34 2.01 -0.68 1.02 0 0 Z " fill="#355F53" transform="translate(30,139)"/>
<path d="M0 0 C4.21796891 0.51463257 6.80873986 3.11310978 9.875 5.8125 C13.75347824 9.19004947 17.67090154 12.22808472 22 15 C20.3671875 15.7578125 20.3671875 15.7578125 18 16 C15.1953125 14.3046875 15.1953125 14.3046875 12.125 11.875 C11.59487305 11.45919678 11.06474609 11.04339355 10.51855469 10.61499023 C9.00337069 9.42132884 7.50131403 8.21105998 6 7 C5.30132812 6.45730469 4.60265625 5.91460937 3.8828125 5.35546875 C2.54175301 4.2935293 1.26097664 3.15589526 0 2 C0 1.34 0 0.68 0 0 Z " fill="#2A5548" transform="translate(50,250)"/>
<path d="M0 0 C0.99 0.33 1.98 0.66 3 1 C3.33 1.99 3.66 2.98 4 4 C3.38125 4.433125 2.7625 4.86625 2.125 5.3125 C-1.10027591 9.39152541 -1.33661635 13.9373353 -2 19 C-3.32 17.68 -4.64 16.36 -6 15 C-5.34 15 -4.68 15 -4 15 C-4 13.02 -4 11.04 -4 9 C-6.47266765 9.34444881 -6.47266765 9.34444881 -9 10 C-9.33 10.66 -9.66 11.32 -10 12 C-10.66 11.67 -11.32 11.34 -12 11 C-12 10.34 -12 9.68 -12 9 C-11.21753906 8.76925781 -10.43507812 8.53851563 -9.62890625 8.30078125 C-8.61699219 7.97464844 -7.60507813 7.64851562 -6.5625 7.3125 C-5.55316406 6.99925781 -4.54382813 6.68601563 -3.50390625 6.36328125 C-0.7385387 5.23116451 -0.7385387 5.23116451 -0.15234375 2.35546875 C-0.10207031 1.57816406 -0.05179688 0.80085937 0 0 Z " fill="#376054" transform="translate(72,218)"/>
<path d="M0 0 C0.66 0.33 1.32 0.66 2 1 C1.85923685 2.9587043 1.7122324 4.91696093 1.5625 6.875 C1.48128906 7.96554688 1.40007812 9.05609375 1.31640625 10.1796875 C1 13 1 13 0 15 C-0.99 14.67 -1.98 14.34 -3 14 C-2.34 12.68 -1.68 11.36 -1 10 C-5.29 8.68 -9.58 7.36 -14 6 C-13.67 4.68 -13.34 3.36 -13 2 C-13 2.66 -13 3.32 -13 4 C-7.06 4.99 -7.06 4.99 -1 6 C-0.67 4.02 -0.34 2.04 0 0 Z " fill="#476D62" transform="translate(262,167)"/>
<path d="M0 0 C0.87527344 -0.00257813 1.75054687 -0.00515625 2.65234375 -0.0078125 C5.0625 0.125 5.0625 0.125 8.0625 1.125 C8.0625 2.775 8.0625 4.425 8.0625 6.125 C7.4025 6.125 6.7425 6.125 6.0625 6.125 C5.4025 4.805 4.7425 3.485 4.0625 2.125 C1.27311788 1.70609782 1.27311788 1.70609782 -1.9375 2.125 C-4.68791666 4.54166771 -4.68791666 4.54166771 -6.9375 7.125 C-7.5975 7.125 -8.2575 7.125 -8.9375 7.125 C-9.2675 9.435 -9.5975 11.745 -9.9375 14.125 C-10.2675 14.125 -10.5975 14.125 -10.9375 14.125 C-12.49529277 8.13348933 -12.49529277 8.13348933 -10.9609375 5.359375 C-7.40342076 1.07371156 -5.40641509 -0.01587787 0 0 Z " fill="#1C4B3E" transform="translate(132.9375,246.875)"/>
<path d="M0 0 C0.66 0.66 1.32 1.32 2 2 C1.4225 3.155 0.845 4.31 0.25 5.5 C-2.82809854 12.36821275 -4.30048888 19.69928323 -6 27 C-6.32987159 28.334194 -6.66103022 29.66808845 -7 31 C-7.66 31 -8.32 31 -9 31 C-8.66177053 20.34577162 -5.08719406 9.38796199 0 0 Z " fill="#2F5B4E" transform="translate(69,106)"/>
<path d="M0 0 C2.99773701 1.15297577 4.00312605 2.0687521 5.4375 4.9375 C5.5625 7.3125 5.5625 7.3125 4.4375 9.9375 C2.29378207 12.19882839 0.02529871 14.19835583 -2.5625 15.9375 C-3.2225 15.9375 -3.8825 15.9375 -4.5625 15.9375 C-4.8925 16.9275 -5.2225 17.9175 -5.5625 18.9375 C-5.8925 17.6175 -6.2225 16.2975 -6.5625 14.9375 C-3.5925 12.6275 -0.6225 10.3175 2.4375 7.9375 C2.1075 6.2875 1.7775 4.6375 1.4375 2.9375 C0.674375 2.9375 -0.08875 2.9375 -0.875 2.9375 C-2.77083333 2.9375 -4.66666667 2.9375 -6.5625 2.9375 C-4.26471314 0.80991958 -3.19086483 -0.07782597 0 0 Z " fill="#325E50" transform="translate(60.5625,204.0625)"/>
<path d="M0 0 C0.99 0.309375 1.98 0.61875 3 0.9375 C6.97731122 2.08433207 10.88767379 2.56712356 15 3 C15 2.34 15 1.68 15 1 C15.66 1 16.32 1 17 1 C17 2.65 17 4.3 17 6 C16.01 5.87625 15.02 5.7525 14 5.625 C8.88858819 5.56228329 5.68036253 8.78804725 2 12 C2 11.01 2 10.02 2 9 C2.66 9 3.32 9 4 9 C4 8.34 4 7.68 4 7 C5.5 5.375 5.5 5.375 7 4 C4.69 4 2.38 4 0 4 C0 2.68 0 1.36 0 0 Z " fill="#4D756B" transform="translate(30,164)"/>
<path d="M0 0 C3.6970912 1.40489466 7.14747703 3.05503922 10.625 4.9375 C11.56601563 5.44152344 12.50703125 5.94554687 13.4765625 6.46484375 C15.69528553 7.81462417 17.28571415 9.07286658 19 11 C15.08406554 10.21681311 11.63593365 8.60820142 8 7 C8 6.34 8 5.68 8 5 C6.02 4.34 4.04 3.68 2 3 C4.16687491 5.27521866 6.45620509 7.15794162 9 9 C5.23840019 8.47755558 2.67808998 7.7772785 0 5 C-0.25 2.3125 -0.25 2.3125 0 0 Z " fill="#184F41" transform="translate(99,134)"/>
<path d="M0 0 C2.3431213 0.25561323 4.67843403 0.59270772 7 1 C7.33 1.66 7.66 2.32 8 3 C7.34 3 6.68 3 6 3 C6.33 3.66 6.66 4.32 7 5 C7.35555556 12.46666667 7.35555556 12.46666667 5 16 C3.80318922 12.72871719 2.96958169 9.77566498 2.5 6.3125 C2.22002006 2.87037035 2.22002006 2.87037035 0 0 Z " fill="#144D3E" transform="translate(93,234)"/>
<path d="M0 0 C0.33 0 0.66 0 1 0 C2.32 6.6 3.64 13.2 5 20 C4.01 20.33 3.02 20.66 2 21 C1.30215669 18.565036 0.61646178 16.12772895 -0.0625 13.6875 C-0.26166016 12.99720703 -0.46082031 12.30691406 -0.66601562 11.59570312 C-1.98650303 6.80024888 -1.54795136 4.64385407 0 0 Z " fill="#4E756A" transform="translate(9,169)"/>
<path d="M0 0 C3.16598865 2.62431507 4.32449241 5.65959023 5.8125 9.4375 C6.50279297 11.13712891 6.50279297 11.13712891 7.20703125 12.87109375 C8 16 8 16 7.13671875 18.41015625 C6.76160156 18.93480469 6.38648438 19.45945313 6 20 C4.98609147 17.79716302 3.98895615 15.58901444 3 13.375 C2.71382812 12.75753906 2.42765625 12.14007813 2.1328125 11.50390625 C0.36170081 7.49782029 -0.32255965 4.36799531 0 0 Z " fill="#3F685C" transform="translate(12,188)"/>
<path d="M0 0 C0.66 0.33 1.32 0.66 2 1 C1.76583445 5.05886955 1.54687839 7.35661366 -1.125 10.5 C-4.91613014 12.47798094 -6.92797973 12.13111674 -11 11 C-12.9375 9.4375 -12.9375 9.4375 -14 8 C-13.67 7.34 -13.34 6.68 -13 6 C-12.34 6.66 -11.68 7.32 -11 8 C-8.77871445 8.02308597 -8.77871445 8.02308597 -6.375 7.625 C-5.55773437 7.51414062 -4.74046875 7.40328125 -3.8984375 7.2890625 C-3.27195312 7.19367188 -2.64546875 7.09828125 -2 7 C-1.34 4.69 -0.68 2.38 0 0 Z " fill="#315F52" transform="translate(262,117)"/>
<path d="M0 0 C1.06864659 2.13729319 1.54010272 4.0454951 2.0625 6.375 C2.23910156 7.14585938 2.41570312 7.91671875 2.59765625 8.7109375 C3 11 3 11 3 15 C3.99 15.33 4.98 15.66 6 16 C4.02 16.66 2.04 17.32 0 18 C-0.03738281 17.43152344 -0.07476562 16.86304687 -0.11328125 16.27734375 C-0.56978622 10.91564807 -1.63489082 6.8330492 -4 2 C-2.68 1.34 -1.36 0.68 0 0 Z " fill="#355E50" transform="translate(111,33)"/>
<path d="M0 0 C1.98 0.66 3.96 1.32 6 2 C5.67 2.66 5.34 3.32 5 4 C0.05 4 -4.9 4 -10 4 C-10.33 4.66 -10.66 5.32 -11 6 C-11.99 5.34 -12.98 4.68 -14 4 C-14 3.34 -14 2.68 -14 2 C-9.38 1.67 -4.76 1.34 0 1 C0 0.67 0 0.34 0 0 Z " fill="#2B5649" transform="translate(238,214)"/>
<path d="M0 0 C1.01866229 1.65532623 2.01810813 3.32260138 3 5 C3.66 5.33 4.32 5.66 5 6 C4.67 6.66 4.34 7.32 4 8 C4.66 8.61875 5.32 9.2375 6 9.875 C8 12 8 12 8 14 C6.68 14.33 5.36 14.66 4 15 C2.02 11.04 0.04 7.08 -2 3 C-2.66 3 -3.32 3 -4 3 C-4 2.34 -4 1.68 -4 1 C-2 0 -2 0 0 0 Z " fill="#2E5A4C" transform="translate(95,41)"/>
<path d="M0 0 C5 5 5 5 7.125 7.1875 C9.07041718 9.17656226 9.07041718 9.17656226 12 11 C11.01 11.66 10.02 12.32 9 13 C9 12.34 9 11.68 9 11 C8.46375 10.773125 7.9275 10.54625 7.375 10.3125 C4.21499137 8.56617944 1.7323017 6.3597151 -1 4 C-1.66 5.32 -2.32 6.64 -3 8 C-3.66 8 -4.32 8 -5 8 C-4.45773019 4.20411134 -2.79872437 2.52788007 0 0 Z " fill="#204E3F" transform="translate(61,65)"/>
<path d="M0 0 C6.46498449 0.16576883 10.30435802 4.00348694 15 8 C14.67 8.99 14.34 9.98 14 11 C11.6638026 9.35810616 9.33099647 7.7117475 7 6.0625 C6.33226562 5.59392578 5.66453125 5.12535156 4.9765625 4.64257812 C3.29970233 3.45337627 1.64761213 2.22940446 0 1 C0 0.67 0 0.34 0 0 Z " fill="#2E584B" transform="translate(220,26)"/>
<path d="M0 0 C0.99 0.33 1.98 0.66 3 1 C4.3515625 3.87109375 4.3515625 3.87109375 5.625 7.4375 C6.05039063 8.61183594 6.47578125 9.78617188 6.9140625 10.99609375 C7.27242187 11.98738281 7.63078125 12.97867188 8 14 C8.33 14.66 8.66 15.32 9 16 C7.02 16 5.04 16 3 16 C3.33 15.01 3.66 14.02 4 13 C3.24223226 10.55135493 3.24223226 10.55135493 2.0625 8 C0.748156 5.00596891 0 3.29842115 0 0 Z " fill="#315C50" transform="translate(144,28)"/>
<path d="M0 0 C0.33 0 0.66 0 1 0 C1 2.64 1 5.28 1 8 C2.98 8 4.96 8 7 8 C7.33 7.01 7.66 6.02 8 5 C8.33 7.64 8.66 10.28 9 13 C8.34 13 7.68 13 7 13 C7 12.01 7 11.02 7 10 C5.68 10.33 4.36 10.66 3 11 C2.67 13.64 2.34 16.28 2 19 C1.67 19 1.34 19 1 19 C1 16.03 1 13.06 1 10 C0.34 9.67 -0.32 9.34 -1 9 C-0.67 6.03 -0.34 3.06 0 0 Z " fill="#537A70" transform="translate(163,248)"/>
<path d="M0 0 C0.639375 0.45375 1.27875 0.9075 1.9375 1.375 C5.30234463 3.16042777 8.29931893 3.85902917 12.01171875 4.5703125 C14 5 14 5 16 6 C15.01 7.32 14.02 8.64 13 10 C12.15695312 9.6390625 11.31390625 9.278125 10.4453125 8.90625 C9.34960938 8.4421875 8.25390625 7.978125 7.125 7.5 C6.03445312 7.0359375 4.94390625 6.571875 3.8203125 6.09375 C1.19338071 4.87947544 1.19338071 4.87947544 -1 5 C-0.67 3.35 -0.34 1.7 0 0 Z " fill="#2C584B" transform="translate(244,182)"/>
<path d="M0 0 C0.66 0.33 1.32 0.66 2 1 C2 2.65 2 4.3 2 6 C0.02253397 6.73080266 -1.98072489 7.39421747 -4 8 C-4.66 7.67 -5.32 7.34 -6 7 C-5.67 6.34 -5.34 5.68 -5 5 C-5.66 5 -6.32 5 -7 5 C-6.34 3.68 -5.68 2.36 -5 1 C-3.68 1.33 -2.36 1.66 -1 2 C-0.67 1.34 -0.34 0.68 0 0 Z " fill="#8BA7A0" transform="translate(190,166)"/>
<path d="M0 0 C4.8274799 1.41292095 8.7162359 3.42974154 13 6 C10 7 10 7 8 7 C7.01 7.33 6.02 7.66 5 8 C2.95703125 7.00390625 2.95703125 7.00390625 0.8125 5.5625 C0.09707031 5.08941406 -0.61835937 4.61632812 -1.35546875 4.12890625 C-1.89816406 3.75636719 -2.44085938 3.38382812 -3 3 C-2.34 2.67 -1.68 2.34 -1 2 C1.625 2.9375 1.625 2.9375 4 4 C2.68 2.68 1.36 1.36 0 0 Z " fill="#164C3E" transform="translate(120,110)"/>
<path d="M0 0 C0.70125 0.5775 1.4025 1.155 2.125 1.75 C7.48407674 6.35265418 7.48407674 6.35265418 14 8 C14 8.66 14 9.32 14 10 C13.34 10 12.68 10 12 10 C11.67 10.99 11.34 11.98 11 13 C10.67 12.01 10.34 11.02 10 10 C8.34561387 9.30341637 6.67745682 8.63903117 5 8 C3.97980427 7.0206121 2.97850195 6.02104551 2 5 C-0.09989652 3.82425289 -0.09989652 3.82425289 -2 3 C-1.34 2.01 -0.68 1.02 0 0 Z " fill="#275346" transform="translate(51,77)"/>
<path d="M0 0 C1.5778125 0.4021875 1.5778125 0.4021875 3.1875 0.8125 C3.1875 1.1425 3.1875 1.4725 3.1875 1.8125 C1.516875 2.2146875 1.516875 2.2146875 -0.1875 2.625 C-4.03090951 3.47059019 -4.03090951 3.47059019 -5.8125 6.8125 C-5.89155064 9.14449388 -5.90048769 11.48082622 -5.8125 13.8125 C-8.26429712 11.97365216 -8.77817755 11.00985411 -9.3125 7.9375 C-8.8125 4.8125 -8.8125 4.8125 -6.75 1.875 C-3.8125 -0.1875 -3.8125 -0.1875 0 0 Z " fill="#27574B" transform="translate(218.8125,53.1875)"/>
<path d="M0 0 C2.625 0.375 2.625 0.375 5 1 C5 2.65 5 4.3 5 6 C4.34 6 3.68 6 3 6 C3 4.68 3 3.36 3 2 C2.01 2 1.02 2 0 2 C1.58358642 5.16717283 2.45263699 6.73268318 5.6875 8.3125 C6.450625 8.539375 7.21375 8.76625 8 9 C5.17347829 10.15154588 4.18674892 10.07817396 1.3125 8.875 C-1 7 -1 7 -1.9375 4.4375 C-1.958125 3.633125 -1.97875 2.82875 -2 2 C-1.34 1.34 -0.68 0.68 0 0 Z " fill="#3C665C" transform="translate(78,51)"/>
<path d="M0 0 C0.66 0 1.32 0 2 0 C2.07347656 0.95712891 2.07347656 0.95712891 2.1484375 1.93359375 C2.22320312 2.75988281 2.29796875 3.58617187 2.375 4.4375 C2.44460937 5.26121094 2.51421875 6.08492188 2.5859375 6.93359375 C2.72257813 7.61550781 2.85921875 8.29742187 3 9 C3.66 9.33 4.32 9.66 5 10 C5 10.66 5 11.32 5 12 C2.36 12 -0.28 12 -3 12 C-2.34 11.67 -1.68 11.34 -1 11 C-0.5316735 8.41394668 -0.5316735 8.41394668 -0.375 5.4375 C-0.30023438 4.42558594 -0.22546875 3.41367187 -0.1484375 2.37109375 C-0.09945312 1.58863281 -0.05046875 0.80617188 0 0 Z " fill="#154E3F" transform="translate(162,258)"/>
<path d="M0 0 C2.97 0.495 2.97 0.495 6 1 C6 1.66 6 2.32 6 3 C6.66 3.66 7.32 4.32 8 5 C7.67 5.66 7.34 6.32 7 7 C8.32 7.66 9.64 8.32 11 9 C10.01 9.495 10.01 9.495 9 10 C2.5 6.75 2.5 6.75 0 3 C0 2.01 0 1.02 0 0 Z " fill="#22574B" transform="translate(114,119)"/>
<path d="M0 0 C0.66 0.33 1.32 0.66 2 1 C2 1.66 2 2.32 2 3 C-0.1171875 4.7265625 -0.1171875 4.7265625 -2.875 6.625 C-3.77992188 7.25664063 -4.68484375 7.88828125 -5.6171875 8.5390625 C-8 10 -8 10 -10 10 C-10.33 10.66 -10.66 11.32 -11 12 C-11.66 10.35 -12.32 8.7 -13 7 C-12.29875 6.9175 -11.5975 6.835 -10.875 6.75 C-7.35410673 5.8315061 -4.9782532 4.05168554 -2 2 C-1.34 2 -0.68 2 0 2 C0 1.34 0 0.68 0 0 Z " fill="#1B493A" transform="translate(245,80)"/>
<path d="M0 0 C0.99 0.66 1.98 1.32 3 2 C2.67 2.66 2.34 3.32 2 4 C1.34 3.67 0.68 3.34 0 3 C-3.28801037 2.71408606 -5.33432881 2.63018267 -8.25 4.25 C-10.0624173 6.0624173 -11.02478868 7.6432393 -12 10 C-11.41018767 3.74798928 -11.41018767 3.74798928 -9.9375 1.0625 C-6.81691564 -0.6487882 -3.47558203 -0.53955608 0 0 Z " fill="#1A4A3C" transform="translate(259,113)"/>
<path d="M0 0 C0.66 0.66 1.32 1.32 2 2 C4.57061311 2.64767793 4.57061311 2.64767793 7 3 C7 3.66 7 4.32 7 5 C4.33333333 5 1.66666667 5 -1 5 C-3.02323613 5.95211112 -5.02699884 6.94773272 -7 8 C-6.875 6.25 -6.875 6.25 -6 4 C-2.9375 1.75 -2.9375 1.75 0 0 Z " fill="#305649" transform="translate(258,138)"/>
<path d="M0 0 C0.66 0 1.32 0 2 0 C1.53328373 5.41390868 0.75702189 9.20517932 -2 14 C-3.1171875 12.328125 -3.1171875 12.328125 -4 10 C-3.3203125 7.421875 -3.3203125 7.421875 -2.125 4.75 C-1.73570312 3.85796875 -1.34640625 2.9659375 -0.9453125 2.046875 C-0.63335937 1.37140625 -0.32140625 0.6959375 0 0 Z " fill="#376053" transform="translate(279,194)"/>
<path d="M0 0 C0.66 1.32 1.32 2.64 2 4 C1.2575 4.268125 0.515 4.53625 -0.25 4.8125 C-2.87046481 5.94406435 -4.7434989 7.28817158 -7 9 C-7.66 9 -8.32 9 -9 9 C-9 9.66 -9 10.32 -9 11 C-9.99 11 -10.98 11 -12 11 C-10.68774191 7.06322574 -8.8038606 6.1728218 -5.4375 3.8125 C-4.42558594 3.09707031 -3.41367187 2.38164062 -2.37109375 1.64453125 C-1.58863281 1.10183594 -0.80617188 0.55914062 0 0 Z " fill="#154536" transform="translate(47,174)"/>
<path d="M0 0 C0.66 0 1.32 0 2 0 C1.55177525 4.70635989 1.01954794 9.35580527 0.125 14 C-0.01679688 14.7425 -0.15859375 15.485 -0.3046875 16.25 C-0.53414062 16.8275 -0.76359375 17.405 -1 18 C-1.99 18.33 -2.98 18.66 -4 19 C-2.02 9.595 -2.02 9.595 0 0 Z " fill="#2F5D50" transform="translate(233,157)"/>
<path d="M0 0 C1.27609323 0.90933009 2.54565553 1.82782853 3.8125 2.75 C4.87404297 3.51570313 4.87404297 3.51570313 5.95703125 4.296875 C8.02977691 6.02482358 9.47375854 7.78526476 11 10 C10.01 10.33 9.02 10.66 8 11 C5.95703125 9.70703125 5.95703125 9.70703125 3.8125 7.8125 C3.09707031 7.20019531 2.38164062 6.58789062 1.64453125 5.95703125 C0 4 0 4 0 0 Z " fill="#3B6357" transform="translate(235,34)"/>
<path d="M0 0 C0.66 0 1.32 0 2 0 C1.67 2.31 1.34 4.62 1 7 C2.32 6.34 3.64 5.68 5 5 C5 4.01 5 3.02 5 2 C5.99 2 6.98 2 8 2 C7.67 3.98 7.34 5.96 7 8 C4.03 8 1.06 8 -2 8 C-1.34 5.36 -0.68 2.72 0 0 Z " fill="#70938A" transform="translate(103,166)"/>
<path d="M0 0 C0 1.65 0 3.3 0 5 C-0.66 5 -1.32 5 -2 5 C-2 4.34 -2 3.68 -2 3 C-6.95 3 -11.9 3 -17 3 C-17 2.34 -17 1.68 -17 1 C-11.29309366 0.00749455 -5.78591511 -0.10477512 0 0 Z " fill="#497065" transform="translate(46,130)"/>
<path d="M0 0 C1.1875 1.625 1.1875 1.625 2 4 C0.625 7.25 0.625 7.25 -1 10 C-1.66 10 -2.32 10 -3 10 C-4.33333333 8.66666667 -5.66666667 7.33333333 -7 6 C-7.99 5.67 -8.98 5.34 -10 5 C-10 4.34 -10 3.68 -10 3 C-6.87709365 3.48578543 -4.00419641 3.9986012 -1 5 C-0.67 3.35 -0.34 1.7 0 0 Z " fill="#3E675B" transform="translate(55,95)"/>
<path d="M0 0 C2.4375 0.8125 2.4375 0.8125 5 2 C5.33 2.99 5.66 3.98 6 5 C5.34 5 4.68 5 4 5 C3.67 5.66 3.34 6.32 3 7 C0.525 6.01 0.525 6.01 -2 5 C-1.34 3.35 -0.68 1.7 0 0 Z " fill="#EDF1F1" transform="translate(200,42)"/>
<path d="M0 0 C0.66 0 1.32 0 2 0 C2.1875 2.375 2.1875 2.375 2 5 C-1.6441774 7.4294516 -3.71241272 7.16179575 -8 7 C-8.33 6.34 -8.66 5.68 -9 5 C-6.36 4.67 -3.72 4.34 -1 4 C-0.67 2.68 -0.34 1.36 0 0 Z " fill="#325F51" transform="translate(139,264)"/>
<path d="M0 0 C2.31 0.66 4.62 1.32 7 2 C3.25 5 3.25 5 1 5 C0.731875 5.639375 0.46375 6.27875 0.1875 6.9375 C-1 9 -1 9 -4 10 C-2.62845496 7.04590299 -1.01136276 4.55991624 1 2 C0.67 1.34 0.34 0.68 0 0 Z " fill="#1F4B3C" transform="translate(106,238)"/>
<path d="M0 0 C0.33 1.65 0.66 3.3 1 5 C0.46375 4.649375 -0.0725 4.29875 -0.625 3.9375 C-3.75213783 2.70310349 -5.75533985 3.30964678 -9 4 C-9.99 4 -10.98 4 -12 4 C-7.99899414 0.12023674 -5.51903037 -0.43286513 0 0 Z " fill="#325A4E" transform="translate(205,234)"/>
<path d="M0 0 C-0.33 1.65 -0.66 3.3 -1 5 C-4.37462715 4.45276317 -6.08235 3.9451 -9 2 C-5.86501708 0.14223235 -3.62528568 -0.20140476 0 0 Z " fill="#EBF0EE" transform="translate(256,100)"/>
<path d="M0 0 C2.02434654 0.51952256 4.02413655 1.13238987 6.01953125 1.75390625 C6.01953125 2.41390625 6.01953125 3.07390625 6.01953125 3.75390625 C3.89453125 4.94140625 3.89453125 4.94140625 1.01953125 5.75390625 C-2.29296875 4.37890625 -2.29296875 4.37890625 -4.98046875 2.75390625 C-3.57594973 0.47156284 -2.72095665 -0.33810704 0 0 Z " fill="#275A4D" transform="translate(163.98046875,147.24609375)"/>
<path d="M0 0 C0.86625 0.639375 1.7325 1.27875 2.625 1.9375 C5.9598812 3.97548296 8.16047478 4.63433093 12 5 C11.67 5.66 11.34 6.32 11 7 C4.65625 7.48798077 4.65625 7.48798077 1.5625 5.1875 C0 3 0 3 0 0 Z " fill="#144436" transform="translate(237,202)"/>
<path d="M0 0 C5.75 1.75 5.75 1.75 8 4 C6.8553125 4.2165625 6.8553125 4.2165625 5.6875 4.4375 C2.91827092 4.9632594 2.91827092 4.9632594 0 6 C-0.66 5.01 -1.32 4.02 -2 3 C-1.34 2.01 -0.68 1.02 0 0 Z " fill="#1B5043" transform="translate(125,149)"/>
<path d="M0 0 C-0.556875 0.226875 -1.11375 0.45375 -1.6875 0.6875 C-5.96311877 3.11420254 -9.13916819 6.43250373 -11 11 C-11.48076923 4.75 -11.48076923 4.75 -9.4375 1.5625 C-6.18129203 -0.5248128 -3.79004984 -0.2915423 0 0 Z " fill="#0E3E2E" transform="translate(234,66)"/>
<path d="M0 0 C1.32 0.33 2.64 0.66 4 1 C1.03 3.64 -1.94 6.28 -5 9 C-5.66 8.67 -6.32 8.34 -7 8 C-5.51014431 4.20764006 -3.41341953 2.19434113 0 0 Z " fill="#275244" transform="translate(58,35)"/>
<path d="M0 0 C1.77007714 -0.08114106 3.54122098 -0.13925505 5.3125 -0.1875 C6.29863281 -0.22230469 7.28476563 -0.25710937 8.30078125 -0.29296875 C11 0 11 0 12.85546875 1.51171875 C13.23316406 2.00285156 13.61085937 2.49398438 14 3 C11.8535247 2.88655624 9.70779408 2.75893655 7.5625 2.625 C6.36753906 2.55539062 5.17257813 2.48578125 3.94140625 2.4140625 C2.97074219 2.27742187 2.00007812 2.14078125 1 2 C0.67 1.34 0.34 0.68 0 0 Z " fill="#2A5447" transform="translate(168,7)"/>
<path d="M0 0 C3.28788824 3.11016455 5.83735988 6.01618925 8 10 C7.01 10 6.02 10 5 10 C0 4.88372093 0 4.88372093 0 0 Z " fill="#224E40" transform="translate(30,225)"/>
<path d="M0 0 C0.66 0.33 1.32 0.66 2 1 C2 1.99 2 2.98 2 4 C3.32 4.33 4.64 4.66 6 5 C6.33 3.35 6.66 1.7 7 0 C7.33 0 7.66 0 8 0 C8.04254356 1.99954746 8.04080783 4.00041636 8 6 C7 7 7 7 4.625 7.3125 C2 7 2 7 0.125 5.1875 C-0.24625 4.465625 -0.6175 3.74375 -1 3 C-0.67 2.01 -0.34 1.02 0 0 Z " fill="#2F584B" transform="translate(41,197)"/>
<path d="M0 0 C0.99 0.33 1.98 0.66 3 1 C3.33 3.31 3.66 5.62 4 8 C2.35 8 0.7 8 -1 8 C-0.67 5.36 -0.34 2.72 0 0 Z " fill="#D6DFDD" transform="translate(105,165)"/>
<path d="M0 0 C0.99 0 1.98 0 3 0 C3.625 2.875 3.625 2.875 4 6 C2 8 2 8 -0.625 8.125 C-1.40875 8.08375 -2.1925 8.0425 -3 8 C-3.66 6.68 -4.32 5.36 -5 4 C-2.03 4.495 -2.03 4.495 1 5 C1.33 3.68 1.66 2.36 2 1 C1.34 0.67 0.68 0.34 0 0 Z " fill="#466F63" transform="translate(254,99)"/>
<path d="M0 0 C0.8353125 0.37125 0.8353125 0.37125 1.6875 0.75 C1.3575 2.07 1.0275 3.39 0.6875 4.75 C-1.9525 4.42 -4.5925 4.09 -7.3125 3.75 C-2.88173077 -0.31153846 -2.88173077 -0.31153846 0 0 Z " fill="#EDF0EF" transform="translate(246.3125,84.25)"/>
<path d="M0 0 C0.66 0.33 1.32 0.66 2 1 C1.67 2.32 1.34 3.64 1 5 C2.98 5.66 4.96 6.32 7 7 C7 7.66 7 8.32 7 9 C2.48521602 8.46884894 -0.34666857 6.63379708 -4 4 C-3.01 3.67 -2.02 3.34 -1 3 C-0.67 2.01 -0.34 1.02 0 0 Z " fill="#426B5F" transform="translate(194,49)"/>
<path d="M0 0 C1.485 0.99 1.485 0.99 3 2 C3.29296875 4.1640625 3.29296875 4.1640625 3.1875 6.625 C3.16042969 7.44226562 3.13335937 8.25953125 3.10546875 9.1015625 C3.07066406 9.72804688 3.03585938 10.35453125 3 11 C3.66 11 4.32 11 5 11 C5 11.66 5 12.32 5 13 C3.35 13 1.7 13 0 13 C0 8.71 0 4.42 0 0 Z " fill="#6D8D85" transform="translate(120,34)"/>
<path d="M0 0 C-1.50223584 4.20626034 -4.28550034 5.73900021 -8 8 C-8.66 7.34 -9.32 6.68 -10 6 C-8.71283353 4.99421411 -7.42011342 3.99553202 -6.125 3 C-5.40570313 2.443125 -4.68640625 1.88625 -3.9453125 1.3125 C-2 0 -2 0 0 0 Z " fill="#2D5649" transform="translate(240,254)"/>
<path d="M0 0 C2.475 0.495 2.475 0.495 5 1 C5.25 8.5 5.25 8.5 3 13 C3 9.37 3 5.74 3 2 C2.01 2 1.02 2 0 2 C0 1.34 0 0.68 0 0 Z " fill="#255A4D" transform="translate(157,247)"/>
<path d="M0 0 C-0.99 0.33 -1.98 0.66 -3 1 C-3.33 1.66 -3.66 2.32 -4 3 C-6.97 2.01 -9.94 1.02 -13 0 C-13 -0.33 -13 -0.66 -13 -1 C-8.15507803 -2.51403812 -4.7408989 -1.36602172 0 0 Z " fill="#235A4C" transform="translate(139,131)"/>
<path d="M0 0 C0.99 0.33 1.98 0.66 3 1 C2.67 2.65 2.34 4.3 2 6 C-0.31 6.33 -2.62 6.66 -5 7 C-3.47793991 4.37098712 -2.15634036 2.15634036 0 0 Z " fill="#23594C" transform="translate(182,127)"/>
<path d="M0 0 C5.29158974 1.40071493 7.77478044 4.85487245 11 9 C8 9 8 9 5.95703125 7.28515625 C5.24933594 6.55167969 4.54164063 5.81820312 3.8125 5.0625 C3.09707031 4.33160156 2.38164062 3.60070312 1.64453125 2.84765625 C0 1 0 1 0 0 Z " fill="#39584E" transform="translate(203,80)"/>
<path d="M0 0 C1.65 0 3.3 0 5 0 C5 4.29 5 8.58 5 13 C4.34 12.67 3.68 12.34 3 12 C2.5859375 9.71484375 2.5859375 9.71484375 2.375 6.9375 C2.26285156 5.55884766 2.26285156 5.55884766 2.1484375 4.15234375 C2.07496094 3.08693359 2.07496094 3.08693359 2 2 C1.34 2 0.68 2 0 2 C0 1.34 0 0.68 0 0 Z " fill="#77978F" transform="translate(128,29)"/>
<path d="M0 0 C2.3431213 0.25561323 4.67843403 0.59270772 7 1 C7.33 1.66 7.66 2.32 8 3 C7.01 3.495 7.01 3.495 6 4 C5.27306096 5.97888961 4.60183749 7.97954558 4 10 C3.67 10 3.34 10 3 10 C2.87625 8.906875 2.7525 7.81375 2.625 6.6875 C2.24535199 2.92618198 2.24535199 2.92618198 0 0 Z " fill="#235649" transform="translate(93,234)"/>
<path d="M0 0 C1.65 0 3.3 0 5 0 C5 0.66 5 1.32 5 2 C6.9600281 3.63676257 6.9600281 3.63676257 9 5 C5.09567131 5 2.61973402 4.31626692 -1 3 C-0.67 2.01 -0.34 1.02 0 0 Z " fill="#20574A" transform="translate(116,109)"/>
<path d="M0 0 C0.433125 0.9590625 0.433125 0.9590625 0.875 1.9375 C1.82823451 4.15206079 1.82823451 4.15206079 4 5 C3.67 5.66 3.34 6.32 3 7 C1.35 7 -0.3 7 -2 7 C-1.125 1.125 -1.125 1.125 0 0 Z " fill="#EEF1F0" transform="translate(38,105)"/>
<path d="M0 0 C0.99 0 1.98 0 3 0 C3.66 1.32 4.32 2.64 5 4 C5.66 3.67 6.32 3.34 7 3 C7 3.66 7 4.32 7 5 C7.99 5.33 8.98 5.66 10 6 C8.3125 6.6875 8.3125 6.6875 6 7 C3.3125 5.8125 3.3125 5.8125 1 4 C0.1875 1.8125 0.1875 1.8125 0 0 Z " fill="#E8EDEC" transform="translate(78,53)"/>
<path d="M0 0 C0.99 0 1.98 0 3 0 C3 1.65 3 3.3 3 5 C1.68 5.33 0.36 5.66 -1 6 C-1.625 4.125 -1.625 4.125 -2 2 C-1.34 1.34 -0.68 0.68 0 0 Z " fill="#96AEA8" transform="translate(195,167)"/>
<path d="M0 0 C0.99 0.33 1.98 0.66 3 1 C1.68 1.99 0.36 2.98 -1 4 C0.98 3.67 2.96 3.34 5 3 C3.19873295 5.27528469 2.3633843 5.94682181 -0.5625 6.375 C-1.7690625 6.189375 -1.7690625 6.189375 -3 6 C-3.66 5.01 -4.32 4.02 -5 3 C-2.6875 1.4375 -2.6875 1.4375 0 0 Z " fill="#194D3F" transform="translate(155,119)"/>
<path d="M0 0 C2 3 2 3 2 7 C2.99 7.33 3.98 7.66 5 8 C3.02 8.66 1.04 9.32 -1 10 C-1.125 3.375 -1.125 3.375 0 0 Z " fill="#53776C" transform="translate(112,41)"/>
<path d="M0 0 C0.66 0.33 1.32 0.66 2 1 C-5.0019305 6.02123552 -5.0019305 6.02123552 -8.9375 5.9375 C-11 5 -11 5 -12 3 C-10.948125 3.061875 -9.89625 3.12375 -8.8125 3.1875 C-4.79332816 2.98983581 -3.27430038 2.1516831 0 0 Z " fill="#174D3E" transform="translate(172,125)"/>
<path d="M0 0 C1.32 0 2.64 0 4 0 C3.34 3.63 2.68 7.26 2 11 C1.34 11 0.68 11 0 11 C0 7.37 0 3.74 0 0 Z " fill="#709289" transform="translate(169,30)"/>
<path d="M0 0 C0.33 0 0.66 0 1 0 C1 4.95 1 9.9 1 15 C0.01 14.67 -0.98 14.34 -2 14 C-1.03644647 4.58997722 -1.03644647 4.58997722 0 0 Z " fill="#688D84" transform="translate(160,30)"/>
<path d="M0 0 C1.98567708 0.5859375 3.97135417 1.171875 5.95703125 1.7578125 C5.95703125 2.7478125 5.95703125 3.7378125 5.95703125 4.7578125 C2.32703125 3.7678125 -1.30296875 2.7778125 -5.04296875 1.7578125 C-2.04296875 -0.2421875 -2.04296875 -0.2421875 0 0 Z " fill="#466D61" transform="translate(101.04296875,279.2421875)"/>
<path d="M0 0 C2.64 0.66 5.28 1.32 8 2 C6.515 4.475 6.515 4.475 5 7 C2 5 2 5 0 3 C0 2.01 0 1.02 0 0 Z " fill="#24594D" transform="translate(136,144)"/>
<path d="M0 0 C2.18975773 3.28463659 2.99806563 6.20696275 4 10 C3.01 10.33 2.02 10.66 1 11 C-1.03684712 6.92630576 -1.0257259 4.41062136 0 0 Z " fill="#4B7267" transform="translate(279,92)"/>
<path d="M0 0 C-2.62198774 2.15377564 -4.64404172 3.40072174 -8 4 C-8.33 3.01 -8.66 2.02 -9 1 C-5.64919071 -1.10976881 -3.77897651 -1.0497157 0 0 Z " fill="#4D7369" transform="translate(210,275)"/>
<path d="M0 0 C0.66 0.33 1.32 0.66 2 1 C-5.11389522 7.51936219 -5.11389522 7.51936219 -10 9 C-6.83047153 5.73991357 -3.60062011 2.77762123 0 0 Z " fill="#193C2E" transform="translate(204,212)"/>
<path d="M0 0 C2.52259061 1.97420135 2.9929808 2.96745642 3.6875 6.1875 C3.790625 7.115625 3.89375 8.04375 4 9 C3.01 8.67 2.02 8.34 1 8 C-0.35439668 5.29120665 -0.06501451 2.99066732 0 0 Z " fill="#2B5749" transform="translate(12,188)"/>
<path d="M0 0 C-3.61186839 2.74501997 -7.30395263 5.37012014 -11 8 C-11 7.01 -11 6.02 -11 5 C-10.34 5 -9.68 5 -9 5 C-9 4.34 -9 3.68 -9 3 C-6.04341306 0.15291628 -4.05047276 -0.3375394 0 0 Z " fill="#113C2D" transform="translate(43,168)"/>
<path d="M0 0 C4.875 1.75 4.875 1.75 6 4 C3.625 4.625 3.625 4.625 1 5 C0.34 4.34 -0.32 3.68 -1 3 C-0.67 2.01 -0.34 1.02 0 0 Z " fill="#255A4E" transform="translate(142,160)"/>
<path d="M0 0 C2.125 0.375 2.125 0.375 4 1 C3.34 1 2.68 1 2 1 C2 1.66 2 2.32 2 3 C2.99 3.33 3.98 3.66 5 4 C4.01 4.66 3.02 5.32 2 6 C1.01 5.67 0.02 5.34 -1 5 C-0.67 4.34 -0.34 3.68 0 3 C-0.66 2.67 -1.32 2.34 -2 2 C-1.34 1.34 -0.68 0.68 0 0 Z " fill="#134D3E" transform="translate(185,125)"/>
<path d="M0 0 C0.33 0 0.66 0 1 0 C1.33 3.96 1.66 7.92 2 12 C1.01 12.33 0.02 12.66 -1 13 C-1.07654536 8.48382401 -1.10228696 4.40914783 0 0 Z " fill="#5A8178" transform="translate(7,119)"/>
<path d="M0 0 C0.66 0.33 1.32 0.66 2 1 C1.25 7.75 1.25 7.75 -1 10 C-1.99 9.67 -2.98 9.34 -4 9 C-3.525625 8.62875 -3.05125 8.2575 -2.5625 7.875 C-0.47794198 5.37353038 -0.35378509 3.18406582 0 0 Z " fill="#3C6659" transform="translate(262,117)"/>
<path d="M0 0 C0.66 0.33 1.32 0.66 2 1 C2 1.66 2 2.32 2 3 C-0.31 3.66 -2.62 4.32 -5 5 C-5.66 4.34 -6.32 3.68 -7 3 C-4.69631264 1.93347808 -2.35981813 0.93578995 0 0 Z " fill="#436A5E" transform="translate(92,15)"/>
<path d="M0 0 C0.99 0.33 1.98 0.66 3 1 C3 2.32 3 3.64 3 5 C3.66 5.33 4.32 5.66 5 6 C2.6568787 5.74438677 0.32156597 5.40729228 -2 5 C-2.33 4.34 -2.66 3.68 -3 3 C-2.01 2.01 -1.02 1.02 0 0 Z " fill="#1A4E3F" transform="translate(96,254)"/>
<path d="M0 0 C2.97 0.495 2.97 0.495 6 1 C5.67 1.99 5.34 2.98 5 4 C2.9375 4.6875 2.9375 4.6875 1 5 C0.67 3.35 0.34 1.7 0 0 Z " fill="#1A4F43" transform="translate(153,154)"/>
<path d="M0 0 C0.66 0.66 1.32 1.32 2 2 C0.35 1.67 -1.3 1.34 -3 1 C-3.33 1.66 -3.66 2.32 -4 3 C-6.4375 2.625 -6.4375 2.625 -9 2 C-9.33 1.34 -9.66 0.68 -10 0 C-6.31938873 -0.9464429 -3.66134991 -1.08850943 0 0 Z " fill="#134C3D" transform="translate(140,156)"/>
<path d="M0 0 C0.66 0.33 1.32 0.66 2 1 C1.01 2.98 0.02 4.96 -1 7 C-1.66 7 -2.32 7 -3 7 C-3.66 5.35 -4.32 3.7 -5 2 C-4.360625 1.855625 -3.72125 1.71125 -3.0625 1.5625 C-1.02454854 1.18992819 -1.02454854 1.18992819 0 0 Z " fill="#809D96" transform="translate(52,208)"/>
<path d="M0 0 C0 1.98 0 3.96 0 6 C-0.99 5.67 -1.98 5.34 -3 5 C-2.67 4.34 -2.34 3.68 -2 3 C-3.32 3.33 -4.64 3.66 -6 4 C-2.25 0 -2.25 0 0 0 Z " fill="#164B3D" transform="translate(194,133)"/>
<path d="M0 0 C-0.33 0.99 -0.66 1.98 -1 3 C-2.84765625 3.73046875 -2.84765625 3.73046875 -5.0625 4.1875 C-5.79597656 4.34605469 -6.52945313 4.50460938 -7.28515625 4.66796875 C-8.13400391 4.83232422 -8.13400391 4.83232422 -9 5 C-8.67 4.01 -8.34 3.02 -8 2 C-5.27366306 0.89786379 -2.95855967 0 0 0 Z " fill="#285043" transform="translate(47,123)"/>
<path d="M0 0 C0.66 0 1.32 0 2 0 C1.125 5.75 1.125 5.75 0 8 C-0.66 8 -1.32 8 -2 8 C-1.125 2.25 -1.125 2.25 0 0 Z " fill="#2C564A" transform="translate(21,80)"/>
<path d="M0 0 C3.24208567 0.35049575 4.61527704 0.56221181 6.8125 3.0625 C7.204375 3.701875 7.59625 4.34125 8 5 C7.01 5.33 6.02 5.66 5 6 C5 5.34 5 4.68 5 4 C4.360625 3.71125 3.72125 3.4225 3.0625 3.125 C1 2 1 2 0 0 Z " fill="#305A4F" transform="translate(118,31)"/>
<path d="M0 0 C-1 2 -1 2 -3.375 3.1875 C-6 4 -6 4 -9 3 C-6.38997624 -0.48003168 -4.1689578 -0.27793052 0 0 Z " fill="#275244" transform="translate(102,13)"/>
<path d="M0 0 C2.97 0 5.94 0 9 0 C9.33 1.32 9.66 2.64 10 4 C6.7 3.01 3.4 2.02 0 1 C0 0.67 0 0.34 0 0 Z " fill="#356256" transform="translate(163,246)"/>
<path d="M0 0 C0.99 0.33 1.98 0.66 3 1 C2.01 4.3 1.02 7.6 0 11 C-0.66 10.67 -1.32 10.34 -2 10 C-1.855625 9.46375 -1.71125 8.9275 -1.5625 8.375 C-0.90546252 5.60084173 -0.44780052 2.81474612 0 0 Z " fill="#64887E" transform="translate(49,108)"/>
<path d="M0 0 C1.32 0.33 2.64 0.66 4 1 C3.3125 2.9375 3.3125 2.9375 2 5 C-0.625 5.75 -0.625 5.75 -3 6 C-2.505 5.195625 -2.01 4.39125 -1.5 3.5625 C0.08419653 1.35103815 0.08419653 1.35103815 0 0 Z " fill="#24594D" transform="translate(189,99)"/>
<path d="M0 0 C0.721875 0.61875 1.44375 1.2375 2.1875 1.875 C4.78381938 3.83666353 6.94671666 4.95316 10 6 C8.3125 6.6875 8.3125 6.6875 6 7 C3.3125 5.8125 3.3125 5.8125 1 4 C0.1875 1.8125 0.1875 1.8125 0 0 Z " fill="#1C4B3D" transform="translate(76,54)"/>
<path d="M0 0 C0.66 0.33 1.32 0.66 2 1 C-0.75 5.875 -0.75 5.875 -3 7 C-3.66 6.34 -4.32 5.68 -5 5 C-3.35 3.35 -1.7 1.7 0 0 Z " fill="#476C61" transform="translate(51,41)"/>
<path d="M0 0 C6.75 0.75 6.75 0.75 9 3 C7.3125 3.75 7.3125 3.75 5 4 C2.25 2.0625 2.25 2.0625 0 0 Z " fill="#3F675B" transform="translate(69,266)"/>
<path d="M0 0 C2.88575819 0.39803561 3.82189513 0.79009069 5.75 3.0625 C6.1625 3.701875 6.575 4.34125 7 5 C3.47967572 5 2.5614657 4.29648649 0 2 C0 1.34 0 0.68 0 0 Z " fill="#234F43" transform="translate(50,250)"/>
<path d="M0 0 C2.64 0.33 5.28 0.66 8 1 C8 2.65 8 4.3 8 6 C7.34 6 6.68 6 6 6 C5.7525 5.38125 5.505 4.7625 5.25 4.125 C3.79371361 1.64931313 2.62187494 1.04874998 0 0 Z " fill="#124133" transform="translate(133,247)"/>
<path d="M0 0 C0 0.66 0 1.32 0 2 C-4.455 2.495 -4.455 2.495 -9 3 C-5.93488101 -0.06511899 -4.25015687 -1.41671896 0 0 Z " fill="#1A4A3B" transform="translate(266,157)"/>
<path d="M0 0 C-0.33 1.32 -0.66 2.64 -1 4 C-3.31 3.67 -5.62 3.34 -8 3 C-4.93882432 0.37613513 -4.26826873 0 0 0 Z " fill="#23574A" transform="translate(192,111)"/>
<path d="M0 0 C1.98 0.495 1.98 0.495 4 1 C3.01 1.495 3.01 1.495 2 2 C1.59270772 4.32156597 1.25561323 6.6568787 1 9 C0.67 9 0.34 9 0 9 C-1.125 2.25 -1.125 2.25 0 0 Z " fill="#20564A" transform="translate(122,252)"/>
<path d="M0 0 C2 2 2 2 2.125 5.625 C2.08375 6.73875 2.0425 7.8525 2 9 C0.68 7.68 -0.64 6.36 -2 5 C-1.34 5 -0.68 5 0 5 C0 3.35 0 1.7 0 0 Z " fill="#345E52" transform="translate(68,228)"/>
<path d="M0 0 C0.99 0.33 1.98 0.66 3 1 C1.515 3.475 1.515 3.475 0 6 C-0.99 5.34 -1.98 4.68 -3 4 C-2.01 2.68 -1.02 1.36 0 0 Z " fill="#3E6459" transform="translate(267,220)"/>
<path d="M0 0 C1.32 1.65 2.64 3.3 4 5 C3.01 6.485 3.01 6.485 2 8 C0.4375 5.6875 0.4375 5.6875 -1 3 C-0.67 2.01 -0.34 1.02 0 0 Z " fill="#40675C" transform="translate(27,219)"/>
<path d="M0 0 C-0.99 1.32 -1.98 2.64 -3 4 C-4.32 3.34 -5.64 2.68 -7 2 C-7 1.34 -7 0.68 -7 0 C-2.25 -1.125 -2.25 -1.125 0 0 Z " fill="#3E665B" transform="translate(260,188)"/>
<path d="M0 0 C0.33 0.99 0.66 1.98 1 3 C1.66 3 2.32 3 3 3 C3 4.65 3 6.3 3 8 C2.01 8.495 2.01 8.495 1 9 C0.67 6.03 0.34 3.06 0 0 Z " fill="#305C4F" transform="translate(284,111)"/>
<path d="M0 0 C2.31 0 4.62 0 7 0 C6.01 1.485 6.01 1.485 5 3 C4.34 3 3.68 3 3 3 C2.67 3.66 2.34 4.32 2 5 C1.34 3.35 0.68 1.7 0 0 Z " fill="#2D5A4D" transform="translate(232,87)"/>
</svg>
